<svg width="102" height="102" viewBox="0 0 102 102" fill="none" xmlns="http://www.w3.org/2000/svg">
<circle cx="51" cy="51" r="51" fill="#CBEBE9"/>
<path d="M44.3169 66.4449C44.3323 66.1081 44.8924 65.9734 45.0555 66.2673C45.8371 67.6452 47.1666 69.6691 48.6775 70.5907C50.1854 71.5093 52.6012 71.7726 54.1891 71.84C54.5276 71.8553 54.663 72.4095 54.3676 72.5749C52.9828 73.3526 50.9486 74.6753 50.0223 76.1757C49.0961 77.676 48.8345 80.0827 48.7668 81.6626C48.7514 81.9995 48.1913 82.1311 48.0282 81.8372C47.2466 80.4593 45.9172 78.4384 44.4093 77.5168C42.9014 76.5952 40.4826 76.3349 38.8946 76.2675C38.5561 76.2522 38.4238 75.695 38.7192 75.5327C40.104 74.755 42.1351 73.4322 43.0614 71.9288C43.9877 70.4285 44.2492 68.0218 44.3169 66.4449ZM69.5974 63.383C69.5728 63.0462 68.9819 62.9053 68.8065 63.1931C68.2772 64.0597 67.5109 65.1007 66.6616 65.6213C65.8122 66.1418 64.529 66.3439 63.5135 66.4235C63.1749 66.448 63.0365 67.0359 63.3227 67.2104C64.1936 67.737 65.2429 68.4964 65.763 69.3445C66.2831 70.1927 66.4923 71.4665 66.5693 72.4769C66.597 72.8137 67.1847 72.9515 67.3632 72.6637C67.8925 71.8002 68.6557 70.7561 69.5081 70.2386C70.3606 69.7212 71.6377 69.513 72.6532 69.4364C72.9917 69.4088 73.1333 68.824 72.844 68.6464C71.9731 68.1198 70.9237 67.3604 70.4036 66.5123C69.8836 65.6641 69.6774 64.3934 69.5974 63.383ZM57.9404 28.1311L57.1957 27.1942C54.3122 23.5719 52.872 21.7593 51.1948 22.0257C49.5177 22.2951 48.7145 24.463 47.1112 28.8017L46.6988 29.9224C46.2403 31.1563 46.0126 31.7718 45.5786 32.2249C45.1386 32.6781 44.5447 32.9138 43.3506 33.3884L42.2643 33.8202L41.5012 34.1264C37.8083 35.5961 35.9496 36.432 35.7127 38.0548C35.4603 39.7848 37.2206 41.2668 40.7411 44.2276L41.6519 44.9931C42.6521 45.8351 43.1537 46.2577 43.4368 46.8303C43.7261 47.4028 43.7661 48.0642 43.8492 49.387L43.923 50.5903C44.2092 55.2444 44.3539 57.5715 45.8741 58.3737C47.3943 59.1759 49.2838 57.9236 53.0628 55.4159L54.0414 54.7668C55.1184 54.0533 55.6539 53.6951 56.2663 53.6002C56.8818 53.5022 57.5034 53.6737 58.7466 54.0166L59.8791 54.3289C64.2551 55.5353 66.4431 56.1385 67.634 54.9045C68.828 53.6706 68.2372 51.414 67.0493 46.9037L66.7447 45.7372C66.4062 44.4542 66.24 43.8143 66.3323 43.1805C66.4246 42.5466 66.7693 41.9894 67.4555 40.8779L68.0802 39.8675C70.4991 35.9605 71.7084 34.007 70.9237 32.4393C70.1421 30.8777 67.8864 30.7338 63.3719 30.4551L62.2056 30.3816C60.9223 30.302 60.2822 30.2622 59.7252 29.9683C59.1713 29.6743 58.7589 29.1599 57.9404 28.1311ZM39.8794 56.6805C33.3031 59.8771 27.8285 64.9415 25.7636 70.9919C23.4494 56.5794 26.6622 47.2712 31.8106 41.4842C32.2537 42.3874 32.8323 43.1345 33.3493 43.7194C34.4263 44.9319 35.9712 46.2301 37.5406 47.5498L38.67 48.499L39.1931 48.943C39.2085 49.1389 39.2239 49.3717 39.2393 49.6687L39.3316 51.1537C39.4547 53.1592 39.5778 55.1158 39.8794 56.6805Z" fill="#40B5AF"/>
</svg>
