<svg width="55" height="51" viewBox="0 0 55 51" fill="none" xmlns="http://www.w3.org/2000/svg">
<rect width="55" height="51" rx="8" fill="#3AA7A2"/>
<path d="M22.55 27.375C18.689 27.375 11 29.2971 11 33.125V36H34.1V33.125C34.1 29.2971 26.411 27.375 22.55 27.375ZM14.861 32.7143C16.247 31.7614 19.5965 30.6607 22.55 30.6607C25.5035 30.6607 28.853 31.7614 30.239 32.7143H14.861ZM22.55 24.5C25.7345 24.5 28.325 21.9207 28.325 18.75C28.325 15.5793 25.7345 13 22.55 13C19.3655 13 16.775 15.5793 16.775 18.75C16.775 21.9207 19.3655 24.5 22.55 24.5ZM22.55 16.2857C23.9195 16.2857 25.025 17.3864 25.025 18.75C25.025 20.1136 23.9195 21.2143 22.55 21.2143C21.1805 21.2143 20.075 20.1136 20.075 18.75C20.075 17.3864 21.1805 16.2857 22.55 16.2857ZM34.166 27.4736C36.08 28.8536 37.4 30.6936 37.4 33.125V36H44V33.125C44 29.8064 38.225 27.9171 34.166 27.4736ZM32.45 24.5C35.6345 24.5 38.225 21.9207 38.225 18.75C38.225 15.5793 35.6345 13 32.45 13C31.559 13 30.734 13.2136 29.975 13.575C31.0145 15.0371 31.625 16.8279 31.625 18.75C31.625 20.6721 31.0145 22.4629 29.975 23.925C30.734 24.2864 31.559 24.5 32.45 24.5Z" fill="white"/>
</svg>
