<svg width="55" height="51" viewBox="0 0 55 51" fill="none" xmlns="http://www.w3.org/2000/svg">
<rect width="55" height="51" rx="8" fill="#3AA7A2"/>
<path d="M39.9974 13V15.6666C39.9974 18.142 39.0141 20.516 37.2637 22.2663C35.5134 24.0166 33.1394 25 30.6641 25H29.3307V26.3333H35.9974V35.6666C35.9974 36.3739 35.7164 37.0522 35.2163 37.5522C34.7163 38.0523 34.038 38.3333 33.3307 38.3333H22.6641C21.9568 38.3333 21.2785 38.0523 20.7784 37.5522C20.2783 37.0522 19.9974 36.3739 19.9974 35.6666V26.3333H26.6641V22.3333C26.6641 19.8579 27.6474 17.484 29.3977 15.7336C31.1481 13.9833 33.522 13 35.9974 13H39.9974ZM19.3307 11.6666C20.9307 11.6653 22.5076 12.0485 23.9285 12.7838C25.3495 13.5191 26.573 14.5851 27.4961 15.892C26.0878 17.7437 25.327 20.0069 25.3307 22.3333V23.6666H24.6641C22.0119 23.6666 19.4684 22.6131 17.593 20.7377C15.7176 18.8623 14.6641 16.3188 14.6641 13.6666V11.6666H19.3307Z" fill="white"/>
</svg>
