<svg width="47" height="53" viewBox="0 0 47 53" fill="none" xmlns="http://www.w3.org/2000/svg">
<path d="M33.9444 39.754H16.6458C15.6449 39.754 14.8294 40.0632 14.1992 40.6816C13.5691 41.3 13.1879 42.0067 13.0556 42.8018C12.9233 43.5969 13.0434 44.3699 13.4159 45.1208C13.7884 45.8717 14.4516 46.4238 15.4056 46.7772L30.3542 52.8065C30.7894 52.9832 31.2141 53.0389 31.6284 52.9735C32.0427 52.9081 32.423 52.7641 32.7694 52.5415C33.1159 52.3189 33.3987 52.0212 33.6181 51.6484C33.8374 51.2756 33.9462 50.8445 33.9444 50.3551V39.754ZM25.6542 3.11406C27.6995 5.1901 28.7222 7.68577 28.7222 10.6011C28.7222 13.5164 27.6995 16.012 25.6542 18.0881C23.6088 20.1641 21.15 21.2021 18.2778 21.2021C15.4056 21.2021 12.9468 20.1641 10.9014 18.0881C8.85602 16.012 7.83333 13.5164 7.83333 10.6011C7.83333 7.68577 8.85602 5.1901 10.9014 3.11406C12.9468 1.03802 15.4056 0 18.2778 0C21.15 0 23.6088 1.03802 25.6542 3.11406ZM42.3653 23.8524C43.6273 23.8524 44.7153 24.2835 45.6292 25.1457C46.5431 26.0079 47 27.0786 47 28.3578C47 29.3738 46.7171 30.3014 46.1514 31.1406C45.5856 31.9799 44.8241 32.5762 43.8667 32.9296L39.1667 34.4535H16.6458C14.1653 34.4535 12.0764 35.3148 10.3792 37.0375C8.68194 38.7601 7.83333 40.8804 7.83333 43.3981C7.83333 44.1932 7.94213 44.9556 8.15972 45.6853C8.37731 46.415 8.66018 47.0882 9.00833 47.7048H0V37.1037C0 33.4375 1.27335 30.3129 3.82006 27.7297C6.36676 25.1466 9.44526 23.8542 13.0556 23.8524H42.3653Z" fill="white"/>
</svg>
