<svg width="44" height="44" viewBox="0 0 44 44" fill="none" xmlns="http://www.w3.org/2000/svg">
<path d="M19.8 1.1789C18.4621 0.406506 16.9444 -8.66968e-05 15.3995 1.38661e-08C13.8546 8.67245e-05 12.337 0.40685 10.9991 1.1794C9.66132 1.95194 8.55046 3.06305 7.77824 4.40101C7.00602 5.73897 6.59965 7.25664 6.6 8.80143V12.704C4.7278 13.4563 3.1922 14.6267 2.0702 16.1688C0.6424 18.1333 0 20.5377 0 23.1005C0 26.5345 1.749 29.5593 4.4 31.3324V34.0999C4.39986 35.8926 4.88657 37.6517 5.80817 39.1894C6.72977 40.7271 8.05167 41.9857 9.63276 42.8309C11.2139 43.676 12.9948 44.076 14.7855 43.9881C16.5761 43.9002 18.3093 43.3277 19.8 42.3317V34.0999C19.8 31.1674 19.074 29.2932 17.908 28.0282C16.7134 26.7369 14.7752 25.7756 11.7392 25.2696L12.4608 20.9315C15.3252 21.4066 17.8332 22.302 19.8 23.8199V1.1789ZM24.2 1.1789V23.8199C26.1668 22.302 28.6748 21.4066 31.5392 20.9315L32.2608 25.2696C29.2248 25.7756 27.2866 26.7369 26.092 28.0304C24.926 29.2932 24.2 31.1674 24.2 34.0999V42.3317C25.6907 43.3277 27.4239 43.9002 29.2146 43.9881C31.0052 44.076 32.7861 43.676 34.3672 42.8309C35.9483 41.9857 37.2702 40.7271 38.1918 39.1894C39.1134 37.6517 39.6001 35.8926 39.6 34.0999V31.3324C42.251 29.5593 44 26.5367 44 23.1005C44 20.5377 43.3576 18.1333 41.9298 16.171C40.8078 14.6267 39.2722 13.4563 37.4 12.704V8.80143C37.4003 7.25664 36.994 5.73897 36.2218 4.40101C35.4495 3.06305 34.3387 1.95194 33.0009 1.1794C31.663 0.40685 30.1454 8.67245e-05 28.6005 1.38661e-08C27.0556 -8.66968e-05 25.5379 0.406506 24.2 1.1789Z" fill="white"/>
</svg>
