<svg width="55" height="51" viewBox="0 0 55 51" fill="none" xmlns="http://www.w3.org/2000/svg">
<rect width="55" height="51" rx="8" fill="#3AA7A2"/>
<path d="M25.5 11.8038C24.5878 11.2772 23.553 10.9999 22.4997 11C21.4463 11.0001 20.4116 11.2774 19.4994 11.8041C18.5873 12.3309 17.8299 13.0884 17.3033 14.0007C16.7768 14.9129 16.4998 15.9477 16.5 17.001V19.6618C15.2235 20.1748 14.1765 20.9727 13.4115 22.0242C12.438 23.3636 12 25.003 12 26.7504C12 29.0917 13.1925 31.1541 15 32.363V34.2499C14.9999 35.4722 15.3318 36.6716 15.9601 37.72C16.5885 38.7685 17.4898 39.6266 18.5678 40.2029C19.6458 40.7791 20.8601 41.0518 22.081 40.9919C23.3019 40.9319 24.4836 40.5416 25.5 39.8626V34.2499C25.5 32.2505 25.005 30.9726 24.21 30.1102C23.3955 29.2297 22.074 28.5743 20.004 28.2293L20.496 25.2715C22.449 25.5954 24.159 26.2059 25.5 27.2408V11.8038ZM28.5 11.8038V27.2408C29.841 26.2059 31.551 25.5954 33.504 25.2715L33.996 28.2293C31.926 28.5743 30.6045 29.2297 29.79 30.1117C28.995 30.9726 28.5 32.2505 28.5 34.2499V39.8626C29.5164 40.5416 30.6981 40.9319 31.919 40.9919C33.1399 41.0518 34.3542 40.7791 35.4322 40.2029C36.5102 39.6266 37.4115 38.7685 38.0399 37.72C38.6682 36.6716 39.0001 35.4722 39 34.2499V32.363C40.8075 31.1541 42 29.0932 42 26.7504C42 25.003 41.562 23.3636 40.5885 22.0257C39.8235 20.9727 38.7765 20.1748 37.5 19.6618V17.001C37.5002 15.9477 37.2232 14.9129 36.6967 14.0007C36.1701 13.0884 35.4127 12.3309 34.5006 11.8041C33.5884 11.2774 32.5537 11.0001 31.5003 11C30.447 10.9999 29.4122 11.2772 28.5 11.8038Z" fill="white"/>
</svg>
