<svg width="41" height="45" viewBox="0 0 41 45" fill="none" xmlns="http://www.w3.org/2000/svg">
<path d="M26.9347 31.1062C28.719 29.3437 29.6111 27.225 29.6111 24.75H11.3889C11.3889 27.225 12.281 29.3437 14.0653 31.1062C15.8495 32.8687 17.9944 33.75 20.5 33.75C23.0056 33.75 25.1505 32.8687 26.9347 31.1062ZM20.5 45C17.6528 45 14.9863 44.466 12.5004 43.398C10.0146 42.33 7.85074 40.8862 6.00878 39.0667C4.16681 37.2472 2.70524 35.1097 1.62406 32.6542C0.542871 30.1987 0.00151852 27.564 0 24.75V0H41V24.75C41 27.5625 40.4594 30.1972 39.3782 32.6542C38.297 35.1112 36.8355 37.2487 34.9935 39.0667C33.1515 40.8847 30.9876 42.3285 28.5018 43.398C26.016 44.4675 23.3487 45.0015 20.5 45ZM9.11111 15.75H18.2222C18.2222 14.5125 17.7765 13.4535 16.8852 12.573C15.9938 11.6925 14.921 11.2515 13.6667 11.25C12.4124 11.2485 11.3403 11.6895 10.4504 12.573C9.56059 13.4565 9.11415 14.5155 9.11111 15.75ZM22.7778 15.75H31.8889C31.8889 14.5125 31.4432 13.4535 30.5518 12.573C29.6605 11.6925 28.5876 11.2515 27.3333 11.25C26.079 11.2485 25.007 11.6895 24.1171 12.573C23.2273 13.4565 22.7808 14.5155 22.7778 15.75Z" fill="white"/>
</svg>
