<svg width="55" height="51" viewBox="0 0 55 51" fill="none" xmlns="http://www.w3.org/2000/svg">
<rect width="55" height="51" rx="8" fill="#3AA7A2"/>
<path d="M18.7647 13.5282C18.7647 16.0033 21.5059 18.6128 23.7675 20.3439C25.0365 21.3135 25.6702 21.7998 26.7058 21.7998C27.7413 21.7998 28.375 21.3135 29.644 20.3439C31.9056 18.6112 34.6469 16.0017 34.6469 13.5282C34.6469 9.06436 30.2792 7.39563 26.7058 10.8451C23.1323 7.39563 18.7647 9.06436 18.7647 13.5282ZM17.5894 40.0199H17.1764C15.6787 40.0199 14.9307 40.0199 14.4653 39.5511C14 39.0855 14 38.3304 14 36.8216V35.0425C14 34.2137 14 33.7994 14.2112 33.4282C14.4225 33.057 14.7417 32.8714 15.3802 32.497C19.5826 30.0347 25.5495 28.6492 29.5312 31.0411C29.7991 31.2021 30.0373 31.3984 30.2459 31.6299C30.4596 31.8651 30.6243 32.1412 30.7302 32.4418C30.836 32.7423 30.881 33.0612 30.8623 33.3796C30.8437 33.698 30.7618 34.0093 30.6215 34.2952C30.4813 34.5811 30.2855 34.8358 30.0458 35.0441C29.8548 35.2268 29.6218 35.3587 29.3676 35.4281C29.5582 35.4057 29.7408 35.3806 29.9155 35.3529C31.3624 35.1209 32.5774 34.3401 33.6892 33.4938L36.5607 31.3099C37.0732 30.9352 37.6903 30.7334 38.3236 30.7334C38.9569 30.7334 39.5739 30.9352 40.0865 31.3099C40.9965 32.0026 41.2761 33.1434 40.6996 34.0746C40.0277 35.1593 39.0812 36.5465 38.1727 37.3944C37.2642 38.2424 35.9079 39.0008 34.8025 39.5383C33.5764 40.1351 32.2232 40.4775 30.8462 40.7031C28.0542 41.1575 25.1445 41.0871 22.381 40.5143C20.8044 40.1874 19.199 40.0207 17.5894 40.0199Z" fill="white"/>
</svg>
