<svg width="53" height="37" viewBox="0 0 53 37" fill="none" xmlns="http://www.w3.org/2000/svg">
<path d="M35.333 18.5C33.0629 18.5 30.8678 17.535 29.1497 15.7838C27.4791 14.0758 26.4589 11.7979 26.2789 9.37192C26.0868 6.78403 26.916 4.40426 28.6131 2.66988C30.3102 0.935511 32.683 0 35.333 0C37.9642 0 40.3437 0.952328 42.0353 2.6825C43.7434 4.42948 44.5749 6.80505 44.3827 9.37087C44.1983 11.8 43.1792 14.0768 41.5119 15.7828C39.7983 17.535 37.6043 18.5 35.333 18.5ZM49.8892 37H20.778C20.3099 37.0023 19.8476 36.9025 19.4264 36.708C19.0053 36.5136 18.6366 36.2298 18.3488 35.8784C18.0435 35.4975 17.8327 35.0558 17.7321 34.5863C17.6315 34.1169 17.6438 33.6318 17.768 33.1675C18.6977 29.6136 21.001 26.6662 24.4283 24.6449C27.4703 22.8517 31.3426 21.8636 35.333 21.8636C39.4019 21.8636 43.1726 22.8096 46.2322 24.6018C49.6672 26.6126 51.9738 29.5768 52.8991 33.1738C53.0218 33.6385 53.0327 34.1235 52.931 34.5927C52.8293 35.0619 52.6176 35.5032 52.3117 35.8837C52.0242 36.2334 51.6564 36.5158 51.2365 36.7093C50.8166 36.9028 50.3557 37.0022 49.8892 37ZM14.4644 18.9204C10.5788 18.9204 7.16257 15.4811 6.84567 11.2545C6.68888 9.08917 7.39775 7.08675 8.83316 5.61832C10.2531 4.1646 12.2561 3.36363 14.4644 3.36363C16.6727 3.36363 18.6602 4.1688 20.0879 5.63093C21.5343 7.11093 22.241 9.10914 22.0754 11.2566C21.7585 15.4822 18.3433 18.9204 14.4644 18.9204ZM21.7143 22.2263C19.7721 21.3223 17.2513 20.8703 14.4655 20.8703C11.2126 20.8703 8.05362 21.6776 5.56926 23.1428C2.75255 24.8068 0.857807 27.2297 0.0926239 30.155C-0.0193544 30.5757 -0.0299456 31.0152 0.0616427 31.4404C0.153231 31.8656 0.344628 32.2656 0.621517 32.6104C0.88425 32.9315 1.22084 33.191 1.6054 33.3688C1.98996 33.5467 2.41224 33.6382 2.83978 33.6363H15.096C15.3028 33.6363 15.5031 33.5672 15.6619 33.441C15.8207 33.3147 15.928 33.1395 15.9649 32.9457C15.9771 32.8795 15.9925 32.8133 16.0102 32.7481C16.9465 29.1679 19.1405 26.1428 22.3823 23.9375C22.5016 23.8557 22.5975 23.7468 22.6613 23.6208C22.7252 23.4948 22.7551 23.3556 22.7481 23.2158C22.7412 23.0761 22.6978 22.9401 22.6218 22.8204C22.5457 22.7006 22.4395 22.6008 22.3128 22.53C22.1394 22.4333 21.9407 22.3314 21.7143 22.2263Z" fill="white"/>
</svg>
