<svg width="52" height="51" viewBox="0 0 52 51" fill="none" xmlns="http://www.w3.org/2000/svg">
<path d="M49.2358 17.0693L34.5322 15.7604L28.7905 1.89312C27.7576 -0.631041 24.2335 -0.631041 23.2006 1.89312L17.4589 15.7916L2.78567 17.0693C0.112275 17.2874 -0.981385 20.7153 1.05404 22.5227L12.2033 32.4324L8.86155 47.1411C8.25396 49.8211 11.0793 51.9401 13.3881 50.5067L25.9956 42.716L38.603 50.5378C40.9119 51.9713 43.7371 49.8522 43.1296 47.1723L39.7878 32.4324L50.9371 22.5227C52.9725 20.7153 51.9092 17.2874 49.2358 17.0693ZM25.9956 36.8886V7.90749L31.1904 20.4971L44.4966 21.6813L34.4107 30.6561L37.4486 43.9937L25.9956 36.8886Z" fill="white"/>
</svg>
