<svg width="29" height="29" viewBox="0 0 29 29" fill="none" xmlns="http://www.w3.org/2000/svg">
<path d="M10.208 28.333C11.6 28.7535 13.0065 29 14.5 29C18.3456 29 22.0338 27.4723 24.753 24.753C27.4723 22.0338 29 18.3456 29 14.5C29 12.5958 28.6249 10.7103 27.8963 8.95109C27.1676 7.19187 26.0995 5.5934 24.753 4.24695C23.4066 2.9005 21.8081 1.83244 20.0489 1.10375C18.2897 0.375054 16.4042 0 14.5 0C12.5958 0 10.7103 0.375054 8.95109 1.10375C7.19187 1.83244 5.5934 2.9005 4.24695 4.24695C1.52767 6.96623 0 10.6544 0 14.5C0 20.6625 3.8715 25.955 9.338 28.043C9.2075 26.912 9.077 25.0415 9.338 23.751L11.0055 16.588C11.0055 16.588 10.585 15.747 10.585 14.413C10.585 12.412 11.832 10.9185 13.253 10.9185C14.5 10.9185 15.08 11.832 15.08 13.0065C15.08 14.2535 14.2535 16.037 13.833 17.748C13.5865 19.169 14.587 20.416 16.037 20.416C18.618 20.416 20.619 17.661 20.619 13.775C20.619 10.295 18.125 7.917 14.5435 7.917C10.4545 7.917 8.0475 10.962 8.0475 14.1665C8.0475 15.4135 8.4535 16.675 9.1205 17.5015C9.251 17.5885 9.251 17.7045 9.2075 17.922L8.787 19.5025C8.787 19.749 8.6275 19.836 8.381 19.662C6.525 18.85 5.452 16.211 5.452 14.0795C5.452 9.4975 8.7 5.336 14.964 5.336C19.952 5.336 23.838 8.9175 23.838 13.6735C23.838 18.6615 20.7495 22.6635 16.327 22.6635C14.9205 22.6635 13.543 21.9095 13.05 21.025L12.0785 24.4615C11.745 25.7085 10.8315 27.376 10.208 28.3765V28.333Z" fill="#2F75A4"/>
</svg>
