<svg width="31" height="31" viewBox="0 0 31 31" fill="none" xmlns="http://www.w3.org/2000/svg">
<path fill-rule="evenodd" clip-rule="evenodd" d="M5.63636 0C4.14151 0 2.70788 0.59383 1.65085 1.65085C0.59383 2.70788 0 4.14151 0 5.63636V25.3636C0 26.8585 0.59383 28.2921 1.65085 29.3491C2.70788 30.4062 4.14151 31 5.63636 31H25.3636C26.8585 31 28.2921 30.4062 29.3491 29.3491C30.4062 28.2921 31 26.8585 31 25.3636V5.63636C31 4.14151 30.4062 2.70788 29.3491 1.65085C28.2921 0.59383 26.8585 0 25.3636 0H5.63636ZM7.33432 9.73682C7.9715 9.73682 8.58259 9.4837 9.03314 9.03314C9.4837 8.58259 9.73682 7.9715 9.73682 7.33432C9.73682 6.69714 9.4837 6.08605 9.03314 5.63549C8.58259 5.18494 7.9715 4.93182 7.33432 4.93182C6.69714 4.93182 6.08605 5.18494 5.63549 5.63549C5.18494 6.08605 4.93182 6.69714 4.93182 7.33432C4.93182 7.9715 5.18494 8.58259 5.63549 9.03314C6.08605 9.4837 6.69714 9.73682 7.33432 9.73682ZM9.73541 26.0682V11.6574H4.93182V26.0682H9.73541ZM15.9805 11.6574H11.6574V26.0682H15.9805V17.3741C16.5371 16.4695 17.4981 15.5 18.8621 15.5C20.7841 15.5 21.2646 17.422 21.2646 18.383V26.0682H26.0682V18.383C26.0682 15.8072 24.9451 11.6574 20.7841 11.6574C18.1378 11.6574 16.6695 12.6226 15.9791 13.5273L15.9805 11.6574Z" fill="#292929"/>
</svg>
