<svg width="110" height="110" viewBox="0 0 110 110" fill="none" xmlns="http://www.w3.org/2000/svg">
<circle cx="55" cy="55" r="55" fill="#CBEBE9"/>
<path d="M73.1249 21L69.6938 33.1772L62.8332 36.7607L69.6938 40.3426L73.1249 51.0867L76.556 40.341L83.4165 36.7591L76.556 33.1788L73.1249 21ZM50.1666 30.5011L48.5833 36.8351L43.8333 38.4186L48.5833 40.0021L50.1666 46.3361L51.7499 40.0021L56.4999 38.4186L51.7499 36.8351L50.1666 30.5011ZM28 59.0042C28 58.5843 28.1668 58.1815 28.4637 57.8845C28.7607 57.5875 29.1634 57.4207 29.5833 57.4207H34.3333C34.7532 57.4207 35.156 57.5875 35.4529 57.8845C35.7498 58.1815 35.9166 58.5843 35.9166 59.0042V76.4165C35.9166 76.8365 35.7498 77.2392 35.4529 77.5362C35.156 77.8332 34.7532 78 34.3333 78H29.5833C29.1634 78 28.7607 77.8332 28.4637 77.5362C28.1668 77.2392 28 76.8365 28 76.4165V59.0042ZM46.5329 57.72C48.0085 57.047 51.6154 57.72 51.6154 57.72L62.1065 60.0731C62.1065 60.0731 64.7301 60.9139 67.189 60.9139C69.6479 60.9139 68.177 64.2805 66.5319 65.4554C64.8868 66.6304 63.6914 66.5671 63.6914 66.5671L55.2206 66.4641C55.2206 66.4641 62.5989 67.8101 65.3856 67.978C66.7963 68.0635 69.2172 67.069 71.9247 65.959C74.561 64.8759 77.4664 63.6835 79.9744 63.2686C85.0568 62.4294 85.877 66.9693 84.2367 68.651C82.5979 70.3326 69.4832 76.7221 67.189 77.563C65.3903 78.2217 63.2164 78.0032 60.7638 77.7561C60.0846 77.688 59.3832 77.6168 58.6643 77.563C55.7985 77.346 53.6103 76.6493 51.4444 75.9604C49.12 75.2225 46.8226 74.4925 43.7462 74.3674C42.7139 74.3263 40.2977 74.4545 39.0833 74.5258V60.4927C41.1828 59.7453 45.434 58.2204 46.5329 57.72Z" fill="#238681"/>
</svg>
