<svg width="110" height="110" viewBox="0 0 110 110" fill="none" xmlns="http://www.w3.org/2000/svg">
<circle cx="55" cy="55" r="55" fill="#CBEBE9"/>
<path d="M52.6364 38.4545V29H57.3636V38.4545H52.6364ZM68.3545 44.9545L65.1045 41.7045L71.7227 34.9091L75.0318 38.2773L68.3545 44.9545ZM71.5455 57.3636V52.6364H81V57.3636H71.5455ZM52.6364 81V71.5455H57.3636V81H52.6364ZM41.6455 44.8364L34.9091 38.2773L38.2773 34.9682L44.9545 41.6455L41.6455 44.8364ZM71.6636 75.0909L65.1045 68.2955L68.2955 65.1045L75.0318 71.6045L71.6636 75.0909ZM29 57.3636V52.6364H38.4545V57.3636H29ZM38.2773 75.0909L34.9682 71.7227L41.5864 65.1045L43.3 66.7L45.0136 68.3545L38.2773 75.0909ZM44.9545 65.0455C42.197 62.2879 40.8182 58.9394 40.8182 55C40.8182 51.0606 42.197 47.7121 44.9545 44.9545C47.7121 42.197 51.0606 40.8182 55 40.8182C58.9394 40.8182 62.2879 42.197 65.0455 44.9545C67.803 47.7121 69.1818 51.0606 69.1818 55C69.1818 58.9394 67.803 62.2879 65.0455 65.0455C62.2879 67.803 58.9394 69.1818 55 69.1818C51.0606 69.1818 47.7121 67.803 44.9545 65.0455Z" fill="#238681"/>
</svg>
