<svg width="88" height="89" viewBox="0 0 88 89" fill="none" xmlns="http://www.w3.org/2000/svg">
<g filter="url(#filter0_d_1036_473)">
<rect x="4" width="80" height="81" rx="40" fill="#EEFFFE"/>
</g>
<path d="M38.498 38.4989H43.3168C44.629 38.4989 45.9285 38.7623 47.1409 39.2741C48.3533 39.7858 49.4549 40.536 50.3828 41.4816C51.3107 42.4272 52.0468 43.5499 52.549 44.7854C53.0512 46.021 53.3096 47.3452 53.3096 48.6825H37.7629V50.9456H55.5281V48.6825C55.519 46.2752 54.8373 43.9203 53.5628 41.8934H59.9716C62.0709 41.893 64.1273 42.4992 65.9023 43.6416C67.6773 44.7839 69.0981 46.4157 70 48.3476C64.7482 55.4083 56.2453 60 46.6477 60C40.5165 60 35.3224 58.6648 31.1032 56.3226V35.2673C33.8046 35.6613 36.3557 36.7762 38.498 38.4989ZM28.8826 55.4717C28.8826 56.0719 28.6486 56.6475 28.2322 57.0719C27.8157 57.4963 27.2509 57.7347 26.6619 57.7347H22.2206C21.6317 57.7347 21.0669 57.4963 20.6504 57.0719C20.234 56.6475 20 56.0719 20 55.4717V35.1043C20 34.5041 20.234 33.9285 20.6504 33.5041C21.0669 33.0797 21.6317 32.8413 22.2206 32.8413H26.6619C27.2509 32.8413 27.8157 33.0797 28.2322 33.5041C28.6486 33.9285 28.8826 34.5041 28.8826 35.1043V55.4717ZM57.7509 23.7891C59.5178 23.7891 61.2123 24.5044 62.4616 25.7776C63.711 27.0508 64.4129 28.7776 64.4129 30.5782C64.4129 32.3788 63.711 34.1057 62.4616 35.3789C61.2123 36.6521 59.5178 37.3673 57.7509 37.3673C55.9841 37.3673 54.2896 36.6521 53.0402 35.3789C51.7909 34.1057 51.089 32.3788 51.089 30.5782C51.089 28.7776 51.7909 27.0508 53.0402 25.7776C54.2896 24.5044 55.9841 23.7891 57.7509 23.7891ZM42.2064 17C43.9733 17 45.6678 17.7153 46.9171 18.9885C48.1665 20.2617 48.8684 21.9885 48.8684 23.7891C48.8684 25.5897 48.1665 27.3165 46.9171 28.5897C45.6678 29.863 43.9733 30.5782 42.2064 30.5782C40.4396 30.5782 38.7451 29.863 37.4957 28.5897C36.2464 27.3165 35.5445 25.5897 35.5445 23.7891C35.5445 21.9885 36.2464 20.2617 37.4957 18.9885C38.7451 17.7153 40.4396 17 42.2064 17Z" fill="#40B5AF"/>
<defs>
<filter id="filter0_d_1036_473" x="0" y="0" width="88" height="89" filterUnits="userSpaceOnUse" color-interpolation-filters="sRGB">
<feFlood flood-opacity="0" result="BackgroundImageFix"/>
<feColorMatrix in="SourceAlpha" type="matrix" values="0 0 0 0 0 0 0 0 0 0 0 0 0 0 0 0 0 0 127 0" result="hardAlpha"/>
<feOffset dy="4"/>
<feGaussianBlur stdDeviation="2"/>
<feComposite in2="hardAlpha" operator="out"/>
<feColorMatrix type="matrix" values="0 0 0 0 0 0 0 0 0 0 0 0 0 0 0 0 0 0 0.25 0"/>
<feBlend mode="normal" in2="BackgroundImageFix" result="effect1_dropShadow_1036_473"/>
<feBlend mode="normal" in="SourceGraphic" in2="effect1_dropShadow_1036_473" result="shape"/>
</filter>
</defs>
</svg>
