<svg width="88" height="89" viewBox="0 0 88 89" fill="none" xmlns="http://www.w3.org/2000/svg">
<g filter="url(#filter0_d_1036_479)">
<rect x="4" width="80" height="81" rx="40" fill="#EEFFFE"/>
</g>
<path d="M44.2809 46.7492C43.1844 46.7502 42.1123 46.39 41.2007 45.714C40.2891 45.0381 39.579 44.077 39.1606 42.9527C38.7423 41.8284 38.6344 40.5916 38.8507 39.3991C39.0671 38.2067 39.5978 37.1124 40.3757 36.2552C40.5225 36.094 40.6964 35.9664 40.8875 35.8797C41.0787 35.793 41.2834 35.7489 41.4899 35.75C41.6964 35.7511 41.9008 35.7973 42.0912 35.8859C42.2816 35.9746 42.4544 36.104 42.5998 36.2668C42.7451 36.4295 42.8602 36.6224 42.9383 36.8345C43.0164 37.0466 43.0561 37.2736 43.0552 37.5027C43.0542 37.7318 43.0126 37.9585 42.9326 38.1697C42.8527 38.381 42.7361 38.5727 42.5893 38.7339C42.3641 38.9782 42.1852 39.2702 42.0632 39.5924C41.9413 39.9147 41.8788 40.2608 41.8793 40.6103C41.8516 41.1605 41.9796 41.7065 42.2456 42.172C42.5116 42.6374 42.9022 42.9988 43.3626 43.2057C43.823 43.4125 44.3303 43.4544 44.8132 43.3255C45.2962 43.1966 45.7307 42.9033 46.0559 42.4867C46.3532 42.1599 46.7547 41.9766 47.1732 41.9766C47.5916 41.9766 47.9932 42.1599 48.2904 42.4867C48.5801 42.8193 48.7419 43.2636 48.7419 43.7261C48.7419 44.1885 48.5801 44.6328 48.2904 44.9654C47.7627 45.5437 47.1362 45.9993 46.4477 46.3055C45.7592 46.6118 45.0226 46.7627 44.2809 46.7492Z" fill="#40B5AF"/>
<path d="M66.7397 40.75C66.7397 46.5848 64.4219 52.1805 60.2963 56.3064C56.1708 60.4322 50.5753 62.75 44.7408 62.75C38.9063 62.75 33.3108 60.4322 29.1853 56.3064C25.0597 52.1805 22.7419 46.5848 22.7419 40.75C22.7419 34.9152 25.0597 29.3195 29.1853 25.1937C33.3108 21.0679 38.9063 18.75 44.7408 18.75C45.1677 18.75 45.5771 18.9196 45.879 19.2215C46.1809 19.5234 46.3505 19.9328 46.3505 20.3598V28.5159C46.3449 28.9411 46.1735 29.3473 45.8729 29.648C45.5722 29.9487 45.166 30.1201 44.7408 30.1256C42.6389 30.1111 40.5816 30.7321 38.8387 31.9071C37.0859 33.0688 35.719 34.7264 34.9124 36.6684C34.1058 38.6105 33.8961 40.7488 34.3101 42.8105C34.9834 45.2564 36.5013 47.3847 38.5945 48.8178C40.6878 50.2509 43.221 50.896 45.7447 50.6388C48.2684 50.3815 50.6194 49.2384 52.3804 47.4125C54.1415 45.5865 55.1987 43.1956 55.3646 40.6641C55.3617 40.452 55.4014 40.2413 55.4813 40.0447C55.5612 39.8481 55.6796 39.6695 55.8297 39.5194C55.9797 39.3694 56.1583 39.2509 56.3549 39.171C56.5515 39.0912 56.7621 39.0515 56.9743 39.0544H65.13C65.3488 39.0541 65.5654 39.0984 65.7665 39.1846C65.9676 39.2708 66.149 39.3971 66.2997 39.5558C66.4503 39.7145 66.567 39.9023 66.6427 40.1076C66.7183 40.3129 66.7513 40.5315 66.7397 40.75Z" fill="#40B5AF"/>
<path d="M65.7419 28.3656C65.6854 28.7868 65.5129 29.1841 65.2437 29.5131L60.5426 34.2114C59.8741 34.8822 59.047 35.3737 58.1379 35.6404C57.6047 35.804 57.0493 35.8843 56.4915 35.8785C56.1095 35.9124 55.7253 35.9124 55.3433 35.8785L52.462 35.3156L47.5227 40.2737C47.212 40.5689 46.803 40.7386 46.3745 40.75C45.9437 40.7496 45.5307 40.5783 45.2263 40.2737C45.073 40.1244 44.9512 39.946 44.868 39.7489C44.7848 39.5518 44.7419 39.3401 44.7419 39.1262C44.7419 38.9123 44.7848 38.7005 44.868 38.5035C44.9512 38.3064 45.073 38.1279 45.2263 37.9787L50.1873 32.9989L49.6024 30.141C49.4276 29.2198 49.4721 28.2704 49.7324 27.3697C49.9991 26.4611 50.4909 25.6346 51.1622 24.9664L55.8199 20.3114C56.14 20.0204 56.5399 19.8319 56.9681 19.7701C57.3688 19.7121 57.7777 19.7802 58.1379 19.965C58.4954 20.1467 58.7954 20.424 59.0045 20.7661C59.216 21.1488 59.3067 21.5866 59.2645 22.0218L58.5712 26.915L63.4456 26.2438C63.8536 26.2038 64.2642 26.2878 64.6237 26.4848C64.9831 26.6818 65.2747 26.9827 65.4603 27.348C65.6368 27.6588 65.7335 28.0084 65.7419 28.3656Z" fill="#40B5AF"/>
<defs>
<filter id="filter0_d_1036_479" x="0" y="0" width="88" height="89" filterUnits="userSpaceOnUse" color-interpolation-filters="sRGB">
<feFlood flood-opacity="0" result="BackgroundImageFix"/>
<feColorMatrix in="SourceAlpha" type="matrix" values="0 0 0 0 0 0 0 0 0 0 0 0 0 0 0 0 0 0 127 0" result="hardAlpha"/>
<feOffset dy="4"/>
<feGaussianBlur stdDeviation="2"/>
<feComposite in2="hardAlpha" operator="out"/>
<feColorMatrix type="matrix" values="0 0 0 0 0 0 0 0 0 0 0 0 0 0 0 0 0 0 0.25 0"/>
<feBlend mode="normal" in2="BackgroundImageFix" result="effect1_dropShadow_1036_479"/>
<feBlend mode="normal" in="SourceGraphic" in2="effect1_dropShadow_1036_479" result="shape"/>
</filter>
</defs>
</svg>
