<svg width="88" height="89" viewBox="0 0 88 89" fill="none" xmlns="http://www.w3.org/2000/svg">
<g filter="url(#filter0_d_1036_480)">
<rect x="4" width="80" height="81" rx="40" fill="#EEFFFE"/>
</g>
<path d="M45.3682 64.7445L45.3411 64.749L45.1808 64.828L45.1356 64.8371L45.104 64.828L44.9437 64.7468C44.9196 64.7407 44.9015 64.7452 44.8895 64.7603L44.8804 64.7829L44.842 65.7493L44.8533 65.7945L44.8759 65.8239L45.1108 65.991L45.1446 66L45.1717 65.991L45.4066 65.8239L45.4337 65.7877L45.4427 65.7493L45.4043 64.7851C45.3983 64.761 45.3862 64.7475 45.3682 64.7445ZM45.9643 64.4893L45.9327 64.4938L45.5172 64.7038L45.4946 64.7264L45.4879 64.7513L45.5285 65.7222L45.5398 65.7493L45.5579 65.7674L46.0117 65.9752C46.0403 65.9827 46.0622 65.9767 46.0772 65.9571L46.0863 65.9255L46.0095 64.539C46.002 64.5104 45.9869 64.4938 45.9643 64.4893ZM44.3498 64.4938C44.3398 64.4878 44.3279 64.4859 44.3166 64.4884C44.3052 64.4909 44.2953 64.4977 44.2888 64.5074L44.2753 64.539L44.1985 65.9255C44.2 65.9526 44.2128 65.9706 44.2369 65.9797L44.2707 65.9752L44.7246 65.7651L44.7472 65.7471L44.754 65.7222L44.7946 64.7513L44.7878 64.7242L44.7653 64.7016L44.3498 64.4938Z" fill="#40B5AF"/>
<path d="M59.8334 30.2905C61.0312 30.2905 62.1799 30.7663 63.0268 31.6132C63.8738 32.4602 64.3496 33.6089 64.3496 34.8067V55.1295C64.3496 56.3273 63.8738 57.476 63.0268 58.323C62.1799 59.1699 61.0312 59.6457 59.8334 59.6457H39.5105C38.3128 59.6457 37.1641 59.1699 36.3171 58.323C35.4702 57.476 34.9943 56.3273 34.9943 55.1295V48.3553H48.5429C49.7407 48.3553 50.8894 47.8794 51.7363 47.0325C52.5833 46.1855 53.0591 45.0368 53.0591 43.8391V30.2905H59.8334ZM48.5429 19C49.7407 19 50.8894 19.4758 51.7363 20.3228C52.5833 21.1697 53.0591 22.3184 53.0591 23.5162V30.2905H39.5105C38.3128 30.2905 37.1641 30.7663 36.3171 31.6132C35.4702 32.4602 34.9943 33.6089 34.9943 34.8067V48.3553H28.22C27.0223 48.3553 25.8736 47.8794 25.0266 47.0325C24.1797 46.1855 23.7039 45.0368 23.7039 43.8391V23.5162C23.7039 22.3184 24.1797 21.1697 25.0266 20.3228C25.8736 19.4758 27.0223 19 28.22 19H48.5429ZM48.5429 34.8067V43.8391H39.5105V34.8067H48.5429Z" fill="#40B5AF"/>
<defs>
<filter id="filter0_d_1036_480" x="0" y="0" width="88" height="89" filterUnits="userSpaceOnUse" color-interpolation-filters="sRGB">
<feFlood flood-opacity="0" result="BackgroundImageFix"/>
<feColorMatrix in="SourceAlpha" type="matrix" values="0 0 0 0 0 0 0 0 0 0 0 0 0 0 0 0 0 0 127 0" result="hardAlpha"/>
<feOffset dy="4"/>
<feGaussianBlur stdDeviation="2"/>
<feComposite in2="hardAlpha" operator="out"/>
<feColorMatrix type="matrix" values="0 0 0 0 0 0 0 0 0 0 0 0 0 0 0 0 0 0 0.25 0"/>
<feBlend mode="normal" in2="BackgroundImageFix" result="effect1_dropShadow_1036_480"/>
<feBlend mode="normal" in="SourceGraphic" in2="effect1_dropShadow_1036_480" result="shape"/>
</filter>
</defs>
</svg>
