<svg width="110" height="110" viewBox="0 0 110 110" fill="none" xmlns="http://www.w3.org/2000/svg">
<circle cx="55" cy="55" r="55" fill="#CBEBE9"/>
<path d="M75.6538 80C79.2782 80 82 76.9869 82 73.5382V35.4618C82 32.0131 79.2782 29 75.6538 29H53.0897C49.4654 29 46.7436 32.0131 46.7436 35.4618V52.8018C46.0658 52.5594 45.3499 52.4344 44.6282 52.4324H33.3462C29.7218 52.4324 27 55.4456 27 58.8943V73.5382C27 76.9869 29.7218 80 33.3462 80H75.6538ZM65.7821 62.4257C66.8313 62.4257 67.8974 63.3464 67.8974 64.7524V75.8649H60.8462V64.7524C60.8462 63.3464 61.9123 62.4257 62.9615 62.4257H65.7821ZM62.5385 51.8949V48.7604H59.5769C59.0159 48.7604 58.4778 48.5426 58.0811 48.1549C57.6844 47.7671 57.4615 47.2412 57.4615 46.6929C57.4615 46.1445 57.6844 45.6186 58.0811 45.2309C58.4778 44.8431 59.0159 44.6253 59.5769 44.6253H62.5385V41.4826C62.5385 40.9342 62.7613 40.4083 63.158 40.0206C63.5548 39.6329 64.0928 39.415 64.6538 39.415C65.2149 39.415 65.7529 39.6329 66.1497 40.0206C66.5464 40.4083 66.7692 40.9342 66.7692 41.4826V44.6253H69.7308L69.9479 44.6363C70.4684 44.6891 70.9504 44.9285 71.3008 45.3083C71.6512 45.6882 71.8451 46.1814 71.8451 46.6929C71.8451 47.2043 71.6512 47.6976 71.3008 48.0774C70.9504 48.4572 70.4684 48.6967 69.9479 48.7494L69.7308 48.7604H66.7692V51.9004C66.7692 52.4487 66.5464 52.9746 66.1497 53.3624C65.7529 53.7501 65.2149 53.9679 64.6538 53.9679C64.0928 53.9679 63.5548 53.7501 63.158 53.3624C62.7613 52.9746 62.5385 52.4487 62.5385 51.9004M41.8077 68.0577L42.0249 68.0688C42.5453 68.1215 43.0273 68.3609 43.3777 68.7408C43.7281 69.1206 43.9221 69.6139 43.9221 70.1253C43.9221 70.6367 43.7281 71.13 43.3777 71.5098C43.0273 71.8897 42.5453 72.1291 42.0249 72.1818L41.8077 72.1929H36.7308C36.1697 72.1929 35.6317 71.975 35.235 71.5873C34.8383 71.1995 34.6154 70.6736 34.6154 70.1253C34.6154 69.5769 34.8383 69.0511 35.235 68.6633C35.6317 68.2756 36.1697 68.0577 36.7308 68.0577H41.8077ZM41.8077 60.2451C42.3687 60.2451 42.9068 60.4629 43.3035 60.8507C43.7002 61.2384 43.9231 61.7643 43.9231 62.3126C43.9231 62.861 43.7002 63.3869 43.3035 63.7746C42.9068 64.1624 42.3687 64.3802 41.8077 64.3802H36.7308C36.1697 64.3802 35.6317 64.1624 35.235 63.7746C34.8383 63.3869 34.6154 62.861 34.6154 62.3126C34.6154 61.7643 34.8383 61.2384 35.235 60.8507C35.6317 60.4629 36.1697 60.2451 36.7308 60.2451H41.8077Z" fill="#238681"/>
</svg>
