<svg width="110" height="110" viewBox="0 0 110 110" fill="none" xmlns="http://www.w3.org/2000/svg">
<circle cx="55" cy="55" r="55" fill="#CBEBE9"/>
<mask id="mask0_1070_165" style="mask-type:luminance" maskUnits="userSpaceOnUse" x="30" y="27" width="50" height="51">
<path d="M39.9364 55.8052V76.9999H70.551V55.8052L55.2437 40.4979L39.9364 55.8052Z" fill="white" stroke="white" stroke-width="2" stroke-linejoin="round"/>
<path d="M31.2067 50.6078C30.9818 50.8251 30.8024 51.0849 30.679 51.3723C30.5556 51.6596 30.4906 51.9686 30.4879 52.2813C30.4852 52.594 30.5447 52.9041 30.6632 53.1935C30.7816 53.4829 30.9564 53.7458 31.1775 53.967C31.3987 54.1881 31.6616 54.3629 31.951 54.4813C32.2404 54.5998 32.5505 54.6593 32.8632 54.6566C33.1759 54.6539 33.4849 54.5889 33.7722 54.4655C34.0596 54.3421 34.3194 54.1627 34.5367 53.9378L31.2067 50.6078ZM55.2439 29.9006L56.9089 28.2356C56.4672 27.7942 55.8683 27.5461 55.2439 27.5461C54.6194 27.5461 54.0206 27.7942 53.5789 28.2356L55.2439 29.9006ZM75.9511 53.9378C76.1684 54.1627 76.4282 54.3421 76.7155 54.4655C77.0029 54.5889 77.3119 54.6539 77.6246 54.6566C77.9373 54.6593 78.2474 54.5998 78.5368 54.4813C78.8262 54.3629 79.0891 54.1881 79.3102 53.967C79.5314 53.7458 79.7062 53.4829 79.8246 53.1935C79.943 52.9041 80.0026 52.594 79.9999 52.2813C79.9972 51.9686 79.9322 51.6596 79.8088 51.3723C79.6854 51.0849 79.506 50.8251 79.2811 50.6078L75.9511 53.9378ZM34.5367 53.9378L56.9089 31.5656L53.5789 28.2356L31.2067 50.6078L34.5367 53.9378ZM53.5789 31.5656L75.9511 53.9378L79.2811 50.6078L56.9089 28.2356L53.5789 31.5656Z" fill="white"/>
<path d="M49.3563 61.6927H61.1311M55.2437 55.8053V67.5801" stroke="black" stroke-width="2" stroke-linecap="round" stroke-linejoin="round"/>
</mask>
<g mask="url(#mask0_1070_165)">
<path d="M26.9841 25.1907H83.5033V81.7099H26.9841V25.1907Z" fill="#238681"/>
</g>
</svg>
