<svg width="110" height="110" viewBox="0 0 110 110" fill="none" xmlns="http://www.w3.org/2000/svg">
<circle cx="55" cy="55" r="55" fill="#CBEBE9"/>
<path fill-rule="evenodd" clip-rule="evenodd" d="M48.3538 28.7619C50.2859 26.8456 52.9732 26 55.9941 26C59.0151 26 61.7024 26.8456 63.6345 28.7619C65.562 30.6782 66.4191 33.3436 66.4191 36.3398C66.4191 39.3361 65.562 41.9969 63.6391 43.9132C61.707 45.8295 59.0197 46.6797 55.9988 46.6797C52.9779 46.6797 50.2905 45.8295 48.3584 43.9132C46.431 42.0015 45.5738 39.3361 45.5738 36.3398C45.5738 33.3436 46.431 30.6782 48.3584 28.7619M56.0034 56.2797C53.6543 54.0738 50.6612 51.7623 47.4503 50.5537C45.6433 49.8736 43.7158 49.5243 41.7791 49.7771C39.8285 50.0344 37.9381 50.8984 36.2145 52.5252C33.3047 55.2641 32.5727 58.7061 33.2167 62.2124C33.8515 65.6683 35.8206 69.2068 38.3319 72.396C40.8527 75.5639 43.7955 78.3775 47.0796 80.7598C50.1423 82.9657 53.279 84.5741 55.8134 84.9877C55.9364 85.0041 56.0611 85.0041 56.1841 84.9877C58.7185 84.5741 61.8599 82.9657 64.9179 80.7598C68.2037 78.3778 71.1481 75.5642 73.6703 72.396C76.1815 69.2068 78.1461 65.6683 78.7808 62.2124C79.4295 58.7061 78.6974 55.2641 75.7877 52.5252C74.0595 50.8984 72.1737 50.0344 70.2185 49.7771C68.2864 49.5243 66.3589 49.869 64.5473 50.5583C61.341 51.7623 58.3479 54.0738 56.0034 56.2797Z" fill="#238681"/>
</svg>
