<svg width="126" height="126" viewBox="0 0 126 126" fill="none" xmlns="http://www.w3.org/2000/svg">
<circle cx="62" cy="65" r="41" fill="#323232"/>
<path d="M63 0C50.5398 0 38.3594 3.69488 27.9991 10.6174C17.6388 17.5399 9.56394 27.3792 4.79562 38.8909C0.0272969 50.4027 -1.22031 63.0699 1.21056 75.2907C3.64142 87.5115 9.64159 98.737 18.4523 107.548C27.263 116.358 38.4885 122.359 50.7093 124.789C62.9301 127.22 75.5973 125.973 87.1091 121.204C98.6208 116.436 108.46 108.361 115.383 98.0009C122.305 87.6406 126 75.4602 126 63C126 54.7267 124.37 46.5344 121.204 38.8909C118.038 31.2474 113.398 24.3024 107.548 18.4523C101.698 12.6022 94.7526 7.96163 87.1091 4.79559C79.4656 1.62954 71.2733 0 63 0ZM50.4 91.35V34.65L88.2 63L50.4 91.35Z" fill="white"/>
</svg>
