<svg width="47" height="46" viewBox="0 0 47 46" fill="none" xmlns="http://www.w3.org/2000/svg">
<path d="M34.9866 0C34.3527 3.33684 35.66 5.35529 38.2152 6.52797C38.6708 7.33239 39.0472 8.1319 39.3443 8.92943C37.829 7.25362 36.0463 6.43738 33.6 7.63762C34.9965 10.3571 37.1258 10.8297 39.6909 9.94358C40.305 12.0113 40.4535 14.0396 40.3149 16.0875C40.3149 16.1072 40.3149 16.1269 40.305 16.1466C40.404 16.2057 40.503 16.2549 40.5922 16.314C41.0775 16.5995 41.5529 16.8949 42.0084 17.1903C42.048 16.8654 42.0778 16.5306 42.0976 16.2057C42.2164 14.4728 42.1372 12.7202 41.7707 10.938C44.425 11.4402 46.0294 10.0913 47 7.62777C44.6033 7.37178 42.5531 7.7479 41.5231 9.8845C41.2656 8.95897 40.9289 8.02359 40.503 7.0823C42.8503 5.52169 44.2368 3.53081 43.0781 0.424367C40.8497 1.26424 39.7602 2.60331 39.4829 4.31062C39.0274 2.15827 37.7894 0.550397 34.9866 0ZM17.0308 3.9601C16.3078 5.95492 15.6145 8.6242 15.1788 11.263C14.8618 13.2223 14.6539 15.1719 14.6142 16.8654C17.625 19.4155 20.8834 21.2567 24.4983 21.4241C21.2102 16.2549 18.2589 9.60881 17.0308 3.9601ZM3.77145 7.8562C4.07649 15.2802 6.94367 25.4512 14.7331 30.8173L15.2778 31.1915L15.0797 31.8118C14.7628 32.8062 14.3072 33.6825 13.5941 34.3521C12.8712 35.0216 11.9204 35.4548 10.7517 35.6616C8.52334 36.0554 5.38975 35.7404 0.660635 34.9034C-0.29014 37.2764 -0.160399 39.8856 0.703221 42.0025C1.56684 44.0997 3.10888 45.6062 4.87276 46C7.33388 42.8689 11.0389 39.0683 16.1196 39.2948C21.2697 39.5213 27.1625 38.1034 30.6685 34.6081C31.9065 33.3871 32.9662 30.4432 33.5802 27.8536C34.1943 25.2641 34.4419 23.029 34.4419 23.029L34.5013 22.4284L35.0955 22.2709C37.2348 21.7195 39.8098 21.2174 42.6918 19.77C41.8401 19.1989 40.8398 18.5294 39.681 17.8402C37.9082 16.7965 35.9571 15.8906 34.9965 15.7823C33.3524 15.6149 32.4215 15.9103 31.7777 16.3829C31.1439 16.8555 30.7279 17.5842 30.3614 18.4605C30.0049 19.3368 29.7276 20.3312 29.2324 21.2272C28.7273 22.133 27.8459 22.9798 26.5782 23.1177C21.032 23.7577 16.2979 20.8629 12.3264 17.2002C9.05815 14.1872 6.22762 10.623 3.77145 7.8562ZM41.018 22.4284C40.3149 22.6844 39.6414 22.9109 38.9976 23.098C38.8194 23.7773 38.6312 24.4567 38.443 25.1361L40.1663 25.6087C40.4634 24.5552 40.7506 23.4918 41.018 22.4284Z" fill="black"/>
</svg>
