<svg width="35" height="35" viewBox="0 0 35 35" fill="none" xmlns="http://www.w3.org/2000/svg">
<mask id="mask0_749_1208" style="mask-type:luminance" maskUnits="userSpaceOnUse" x="0" y="0" width="35" height="35">
<path d="M0 0H35V35H0V0Z" fill="white"/>
</mask>
<g mask="url(#mask0_749_1208)">
<path d="M17.5 29.1667C17.8868 29.1667 18.2577 29.3203 18.5312 29.5938C18.8047 29.8673 18.9583 30.2382 18.9583 30.625V33.5417C18.9583 33.9284 18.8047 34.2994 18.5312 34.5729C18.2577 34.8464 17.8868 35 17.5 35C17.1132 35 16.7423 34.8464 16.4688 34.5729C16.1953 34.2994 16.0417 33.9284 16.0417 33.5417V30.625C16.0417 30.2382 16.1953 29.8673 16.4688 29.5938C16.7423 29.3203 17.1132 29.1667 17.5 29.1667ZM7.18813 25.7498C7.32265 25.6105 7.48357 25.4994 7.66149 25.423C7.83942 25.3465 8.03078 25.3063 8.22441 25.3046C8.41805 25.303 8.61008 25.3399 8.78931 25.4132C8.96853 25.4865 9.13136 25.5948 9.26828 25.7317C9.40521 25.8686 9.5135 26.0315 9.58682 26.2107C9.66015 26.3899 9.69705 26.5819 9.69537 26.7756C9.69368 26.9692 9.65345 27.1606 9.57702 27.3385C9.50059 27.5164 9.38949 27.6773 9.25021 27.8119L7.18813 29.874C6.91308 30.1396 6.5447 30.2866 6.16233 30.2833C5.77996 30.28 5.41419 30.1266 5.14381 29.8562C4.87342 29.5858 4.72005 29.22 4.71673 28.8377C4.7134 28.4553 4.86039 28.0869 5.12604 27.8119L7.18813 25.7498ZM25.7498 25.7498C26.0233 25.4764 26.3941 25.3228 26.7808 25.3228C27.1675 25.3228 27.5384 25.4764 27.8119 25.7498L29.874 27.8119C30.1396 28.0869 30.2866 28.4553 30.2833 28.8377C30.28 29.22 30.1266 29.5858 29.8562 29.8562C29.5858 30.1266 29.22 30.28 28.8377 30.2833C28.4553 30.2866 28.0869 30.1396 27.8119 29.874L25.7498 27.8119C25.4764 27.5384 25.3228 27.1675 25.3228 26.7808C25.3228 26.3941 25.4764 26.0233 25.7498 25.7498ZM17.5 8.75C19.8206 8.75 22.0462 9.67187 23.6872 11.3128C25.3281 12.9538 26.25 15.1794 26.25 17.5C26.25 19.8206 25.3281 22.0462 23.6872 23.6872C22.0462 25.3281 19.8206 26.25 17.5 26.25C15.1794 26.25 12.9538 25.3281 11.3128 23.6872C9.67187 22.0462 8.75 19.8206 8.75 17.5C8.75 15.1794 9.67187 12.9538 11.3128 11.3128C12.9538 9.67187 15.1794 8.75 17.5 8.75ZM4.375 16.0417C4.76177 16.0417 5.13271 16.1953 5.4062 16.4688C5.67969 16.7423 5.83333 17.1132 5.83333 17.5C5.83333 17.8868 5.67969 18.2577 5.4062 18.5312C5.13271 18.8047 4.76177 18.9583 4.375 18.9583H1.45833C1.07156 18.9583 0.700627 18.8047 0.427136 18.5312C0.153645 18.2577 0 17.8868 0 17.5C0 17.1132 0.153645 16.7423 0.427136 16.4688C0.700627 16.1953 1.07156 16.0417 1.45833 16.0417H4.375ZM33.5417 16.0417C33.9284 16.0417 34.2994 16.1953 34.5729 16.4688C34.8464 16.7423 35 17.1132 35 17.5C35 17.8868 34.8464 18.2577 34.5729 18.5312C34.2994 18.8047 33.9284 18.9583 33.5417 18.9583H30.625C30.2382 18.9583 29.8673 18.8047 29.5938 18.5312C29.3203 18.2577 29.1667 17.8868 29.1667 17.5C29.1667 17.1132 29.3203 16.7423 29.5938 16.4688C29.8673 16.1953 30.2382 16.0417 30.625 16.0417H33.5417ZM5.12604 5.12604C5.39952 4.85265 5.77039 4.69906 6.15708 4.69906C6.54378 4.69906 6.91465 4.85265 7.18813 5.12604L9.25021 7.18813C9.38949 7.32265 9.50059 7.48357 9.57702 7.66149C9.65345 7.83942 9.69368 8.03078 9.69537 8.22441C9.69705 8.41805 9.66015 8.61008 9.58682 8.78931C9.5135 8.96853 9.40521 9.13136 9.26828 9.26828C9.13136 9.40521 8.96853 9.5135 8.78931 9.58682C8.61008 9.66015 8.41805 9.69705 8.22441 9.69537C8.03078 9.69368 7.83942 9.65345 7.66149 9.57702C7.48357 9.50059 7.32265 9.38949 7.18813 9.25021L5.12604 7.18813C4.85265 6.91465 4.69906 6.54378 4.69906 6.15708C4.69906 5.77039 4.85265 5.39952 5.12604 5.12604ZM27.8119 5.12604C28.0869 4.86039 28.4553 4.7134 28.8377 4.71673C29.22 4.72005 29.5858 4.87342 29.8562 5.14381C30.1266 5.41419 30.28 5.77996 30.2833 6.16233C30.2866 6.5447 30.1396 6.91308 29.874 7.18813L27.8119 9.25021C27.6773 9.38949 27.5164 9.50059 27.3385 9.57702C27.1606 9.65345 26.9692 9.69368 26.7756 9.69537C26.5819 9.69705 26.3899 9.66015 26.2107 9.58682C26.0315 9.5135 25.8686 9.40521 25.7317 9.26828C25.5948 9.13136 25.4865 8.96853 25.4132 8.78931C25.3399 8.61008 25.303 8.41805 25.3046 8.22441C25.3063 8.03078 25.3465 7.83942 25.423 7.66149C25.4994 7.48357 25.6105 7.32265 25.7498 7.18813L27.8119 5.12604ZM17.5 0C17.8868 0 18.2577 0.153645 18.5312 0.427136C18.8047 0.700627 18.9583 1.07156 18.9583 1.45833V4.375C18.9583 4.76177 18.8047 5.13271 18.5312 5.4062C18.2577 5.67969 17.8868 5.83333 17.5 5.83333C17.1132 5.83333 16.7423 5.67969 16.4688 5.4062C16.1953 5.13271 16.0417 4.76177 16.0417 4.375V1.45833C16.0417 1.07156 16.1953 0.700627 16.4688 0.427136C16.7423 0.153645 17.1132 0 17.5 0Z" fill="#222222"/>
</g>
</svg>
