<svg width="252" height="252" viewBox="0 0 252 252" fill="none" xmlns="http://www.w3.org/2000/svg">
<circle cx="126" cy="126" r="126" fill="#F7F9FB"/>
<circle cx="133.5" cy="129.5" r="110.5" fill="#EAF3FA"/>
<path d="M88.7 130V90.475L79.325 93.025V83.875L93.65 77.5H100.4V130H88.7ZM132.043 130.9C127.193 130.9 123.043 129.75 119.593 127.45C116.143 125.15 113.468 121.975 111.568 117.925C109.718 113.825 108.793 109.1 108.793 103.75C108.793 98.4 109.718 93.7 111.568 89.65C113.468 85.55 116.143 82.35 119.593 80.05C123.043 77.75 127.193 76.6 132.043 76.6C136.893 76.6 141.043 77.75 144.493 80.05C147.943 82.35 150.593 85.55 152.443 89.65C154.343 93.7 155.293 98.4 155.293 103.75C155.293 109.1 154.343 113.825 152.443 117.925C150.593 121.975 147.943 125.15 144.493 127.45C141.043 129.75 136.893 130.9 132.043 130.9ZM132.043 120.775C134.393 120.775 136.443 120.075 138.193 118.675C139.993 117.275 141.368 115.325 142.318 112.825C143.318 110.275 143.818 107.25 143.818 103.75C143.818 100.25 143.318 97.25 142.318 94.75C141.368 92.2 139.993 90.25 138.193 88.9C136.443 87.5 134.393 86.8 132.043 86.8C129.693 86.8 127.618 87.5 125.818 88.9C124.068 90.25 122.693 92.2 121.693 94.75C120.743 97.25 120.268 100.25 120.268 103.75C120.268 107.25 120.743 110.275 121.693 112.825C122.693 115.325 124.068 117.275 125.818 118.675C127.618 120.075 129.693 120.775 132.043 120.775ZM171.37 126.81V101.4H178.3V126.81H171.37ZM161.14 117.515V110.64H188.475V117.515H161.14Z" fill="url(#paint0_linear_749_1190)"/>
<path d="M50.3202 166V152.7H52.7902V163.72H58.9272V166H50.3202ZM65.5398 166.19C64.5391 166.19 63.6461 165.968 62.8608 165.525C62.0754 165.069 61.4548 164.448 60.9988 163.663C60.5428 162.878 60.3148 161.985 60.3148 160.984C60.3148 159.983 60.5428 159.09 60.9988 158.305C61.4548 157.52 62.0754 156.905 62.8608 156.462C63.6461 156.006 64.5391 155.778 65.5398 155.778C66.5278 155.778 67.4144 156.006 68.1998 156.462C68.9851 156.905 69.5994 157.52 70.0428 158.305C70.4988 159.09 70.7268 159.983 70.7268 160.984C70.7268 161.985 70.4988 162.878 70.0428 163.663C69.5994 164.448 68.9851 165.069 68.1998 165.525C67.4144 165.968 66.5278 166.19 65.5398 166.19ZM65.5398 164.119C66.0844 164.119 66.5658 163.98 66.9838 163.701C67.4144 163.422 67.7501 163.049 67.9908 162.58C68.2441 162.111 68.3644 161.579 68.3518 160.984C68.3644 160.376 68.2441 159.838 67.9908 159.369C67.7501 158.9 67.4144 158.533 66.9838 158.267C66.5658 157.988 66.0844 157.849 65.5398 157.849C64.9951 157.849 64.5011 157.988 64.0578 158.267C63.6271 158.533 63.2914 158.907 63.0508 159.388C62.8101 159.857 62.6898 160.389 62.6898 160.984C62.6898 161.579 62.8101 162.111 63.0508 162.58C63.2914 163.049 63.6271 163.422 64.0578 163.701C64.5011 163.98 64.9951 164.119 65.5398 164.119ZM77.1112 166.19C76.1739 166.19 75.3316 165.962 74.5842 165.506C73.8369 165.05 73.2479 164.429 72.8172 163.644C72.3866 162.859 72.1712 161.972 72.1712 160.984C72.1712 159.996 72.3866 159.109 72.8172 158.324C73.2479 157.539 73.8369 156.918 74.5842 156.462C75.3316 156.006 76.1739 155.778 77.1112 155.778C78.0106 155.778 78.8276 155.949 79.5622 156.291C80.2969 156.633 80.8669 157.108 81.2722 157.716L79.9802 159.274C79.7902 159.008 79.5496 158.767 79.2582 158.552C78.9669 158.337 78.6566 158.166 78.3272 158.039C77.9979 157.912 77.6686 157.849 77.3392 157.849C76.7819 157.849 76.2816 157.988 75.8382 158.267C75.4076 158.533 75.0656 158.907 74.8122 159.388C74.5589 159.857 74.4322 160.389 74.4322 160.984C74.4322 161.579 74.5589 162.111 74.8122 162.58C75.0782 163.049 75.4329 163.422 75.8762 163.701C76.3196 163.98 76.8136 164.119 77.3582 164.119C77.6876 164.119 78.0042 164.068 78.3082 163.967C78.6249 163.853 78.9226 163.695 79.2012 163.492C79.4799 163.289 79.7396 163.036 79.9802 162.732L81.2722 164.309C80.8416 164.866 80.2462 165.322 79.4862 165.677C78.7389 166.019 77.9472 166.19 77.1112 166.19ZM86.8404 166.19C86.0171 166.19 85.2697 165.962 84.5984 165.506C83.9271 165.05 83.3887 164.429 82.9834 163.644C82.5781 162.859 82.3754 161.966 82.3754 160.965C82.3754 159.964 82.5781 159.071 82.9834 158.286C83.3887 157.501 83.9397 156.886 84.6364 156.443C85.3331 156 86.1184 155.778 86.9924 155.778C87.4991 155.778 87.9614 155.854 88.3794 156.006C88.7974 156.145 89.1647 156.348 89.4814 156.614C89.7981 156.88 90.0577 157.184 90.2604 157.526C90.4757 157.868 90.6214 158.235 90.6974 158.628L90.1844 158.495V155.987H92.5404V166H90.1654V163.606L90.7164 163.511C90.6277 163.853 90.4631 164.189 90.2224 164.518C89.9944 164.835 89.7031 165.12 89.3484 165.373C89.0064 165.614 88.6201 165.81 88.1894 165.962C87.7714 166.114 87.3217 166.19 86.8404 166.19ZM87.4864 164.119C88.0311 164.119 88.5124 163.986 88.9304 163.72C89.3484 163.454 89.6714 163.087 89.8994 162.618C90.1401 162.137 90.2604 161.586 90.2604 160.965C90.2604 160.357 90.1401 159.819 89.8994 159.35C89.6714 158.881 89.3484 158.514 88.9304 158.248C88.5124 157.982 88.0311 157.849 87.4864 157.849C86.9417 157.849 86.4604 157.982 86.0424 158.248C85.6371 158.514 85.3204 158.881 85.0924 159.35C84.8644 159.819 84.7504 160.357 84.7504 160.965C84.7504 161.586 84.8644 162.137 85.0924 162.618C85.3204 163.087 85.6371 163.454 86.0424 163.72C86.4604 163.986 86.9417 164.119 87.4864 164.119ZM96.3328 166V153.441H98.6698V166H96.3328ZM94.3568 158.153V155.987H100.855V158.153H94.3568ZM102.901 166V155.987H105.238V166H102.901ZM104.041 153.859C103.572 153.859 103.205 153.745 102.939 153.517C102.685 153.276 102.559 152.941 102.559 152.51C102.559 152.105 102.692 151.775 102.958 151.522C103.224 151.269 103.585 151.142 104.041 151.142C104.522 151.142 104.889 151.262 105.143 151.503C105.409 151.731 105.542 152.067 105.542 152.51C105.542 152.903 105.409 153.226 105.143 153.479C104.877 153.732 104.509 153.859 104.041 153.859ZM112.78 166.19C111.779 166.19 110.886 165.968 110.101 165.525C109.316 165.069 108.695 164.448 108.239 163.663C107.783 162.878 107.555 161.985 107.555 160.984C107.555 159.983 107.783 159.09 108.239 158.305C108.695 157.52 109.316 156.905 110.101 156.462C110.886 156.006 111.779 155.778 112.78 155.778C113.768 155.778 114.655 156.006 115.44 156.462C116.225 156.905 116.84 157.52 117.283 158.305C117.739 159.09 117.967 159.983 117.967 160.984C117.967 161.985 117.739 162.878 117.283 163.663C116.84 164.448 116.225 165.069 115.44 165.525C114.655 165.968 113.768 166.19 112.78 166.19ZM112.78 164.119C113.325 164.119 113.806 163.98 114.224 163.701C114.655 163.422 114.99 163.049 115.231 162.58C115.484 162.111 115.605 161.579 115.592 160.984C115.605 160.376 115.484 159.838 115.231 159.369C114.99 158.9 114.655 158.533 114.224 158.267C113.806 157.988 113.325 157.849 112.78 157.849C112.235 157.849 111.741 157.988 111.298 158.267C110.867 158.533 110.532 158.907 110.291 159.388C110.05 159.857 109.93 160.389 109.93 160.984C109.93 161.579 110.05 162.111 110.291 162.58C110.532 163.049 110.867 163.422 111.298 163.701C111.741 163.98 112.235 164.119 112.78 164.119ZM120.057 166V155.987H122.337L122.375 158.039L121.938 158.267C122.065 157.811 122.312 157.399 122.679 157.032C123.047 156.652 123.484 156.348 123.99 156.12C124.497 155.892 125.016 155.778 125.548 155.778C126.308 155.778 126.942 155.93 127.448 156.234C127.968 156.538 128.354 156.994 128.607 157.602C128.873 158.21 129.006 158.97 129.006 159.882V166H126.669V160.053C126.669 159.546 126.6 159.128 126.46 158.799C126.321 158.457 126.106 158.21 125.814 158.058C125.523 157.893 125.168 157.817 124.75 157.83C124.408 157.83 124.092 157.887 123.8 158.001C123.522 158.102 123.275 158.254 123.059 158.457C122.857 158.647 122.692 158.869 122.565 159.122C122.451 159.375 122.394 159.654 122.394 159.958V166H121.235C121.007 166 120.792 166 120.589 166C120.399 166 120.222 166 120.057 166ZM134.98 166.19C134.093 166.19 133.295 166.044 132.586 165.753C131.889 165.449 131.319 165.018 130.876 164.461L132.396 163.15C132.776 163.581 133.2 163.891 133.669 164.081C134.137 164.271 134.631 164.366 135.151 164.366C135.366 164.366 135.556 164.341 135.721 164.29C135.898 164.239 136.05 164.163 136.177 164.062C136.303 163.961 136.398 163.847 136.462 163.72C136.538 163.581 136.576 163.429 136.576 163.264C136.576 162.96 136.462 162.719 136.234 162.542C136.107 162.453 135.904 162.358 135.626 162.257C135.36 162.156 135.011 162.054 134.581 161.953C133.897 161.776 133.327 161.573 132.871 161.345C132.415 161.104 132.06 160.838 131.807 160.547C131.591 160.306 131.427 160.034 131.313 159.73C131.211 159.426 131.161 159.097 131.161 158.742C131.161 158.299 131.256 157.9 131.446 157.545C131.648 157.178 131.921 156.861 132.263 156.595C132.605 156.329 133.004 156.126 133.46 155.987C133.916 155.848 134.391 155.778 134.885 155.778C135.391 155.778 135.879 155.841 136.348 155.968C136.829 156.095 137.272 156.278 137.678 156.519C138.096 156.747 138.45 157.026 138.742 157.355L137.45 158.78C137.209 158.552 136.943 158.349 136.652 158.172C136.373 157.995 136.088 157.855 135.797 157.754C135.505 157.64 135.233 157.583 134.98 157.583C134.739 157.583 134.524 157.608 134.334 157.659C134.144 157.697 133.985 157.76 133.859 157.849C133.732 157.938 133.631 158.052 133.555 158.191C133.491 158.318 133.46 158.47 133.46 158.647C133.472 158.799 133.51 158.945 133.574 159.084C133.65 159.211 133.751 159.318 133.878 159.407C134.017 159.496 134.226 159.597 134.505 159.711C134.783 159.825 135.144 159.933 135.588 160.034C136.208 160.199 136.728 160.382 137.146 160.585C137.564 160.788 137.893 161.022 138.134 161.288C138.374 161.516 138.545 161.782 138.647 162.086C138.748 162.39 138.799 162.726 138.799 163.093C138.799 163.688 138.628 164.22 138.286 164.689C137.956 165.158 137.5 165.525 136.918 165.791C136.348 166.057 135.702 166.19 134.98 166.19ZM152.503 166.19C151.541 166.19 150.66 166.025 149.862 165.696C149.064 165.367 148.374 164.898 147.791 164.29C147.209 163.669 146.753 162.941 146.423 162.105C146.107 161.256 145.948 160.332 145.948 159.331C145.948 158.368 146.119 157.475 146.461 156.652C146.803 155.829 147.278 155.107 147.886 154.486C148.494 153.865 149.204 153.384 150.014 153.042C150.825 152.7 151.705 152.529 152.655 152.529C153.301 152.529 153.928 152.624 154.536 152.814C155.144 153.004 155.702 153.27 156.208 153.612C156.715 153.941 157.139 154.328 157.481 154.771L155.904 156.5C155.575 156.158 155.233 155.873 154.878 155.645C154.536 155.404 154.175 155.227 153.795 155.113C153.428 154.986 153.048 154.923 152.655 154.923C152.073 154.923 151.522 155.031 151.002 155.246C150.496 155.461 150.052 155.765 149.672 156.158C149.305 156.551 149.014 157.019 148.798 157.564C148.583 158.096 148.475 158.691 148.475 159.35C148.475 160.021 148.577 160.629 148.779 161.174C148.995 161.719 149.292 162.187 149.672 162.58C150.065 162.973 150.527 163.277 151.059 163.492C151.604 163.695 152.199 163.796 152.845 163.796C153.263 163.796 153.669 163.739 154.061 163.625C154.454 163.511 154.815 163.353 155.144 163.15C155.486 162.935 155.797 162.688 156.075 162.409L157.291 164.366C156.987 164.708 156.582 165.018 156.075 165.297C155.569 165.576 154.999 165.797 154.365 165.962C153.745 166.114 153.124 166.19 152.503 166.19ZM164.01 166.19C163.009 166.19 162.116 165.968 161.331 165.525C160.545 165.069 159.925 164.448 159.469 163.663C159.013 162.878 158.785 161.985 158.785 160.984C158.785 159.983 159.013 159.09 159.469 158.305C159.925 157.52 160.545 156.905 161.331 156.462C162.116 156.006 163.009 155.778 164.01 155.778C164.998 155.778 165.884 156.006 166.67 156.462C167.455 156.905 168.069 157.52 168.513 158.305C168.969 159.09 169.197 159.983 169.197 160.984C169.197 161.985 168.969 162.878 168.513 163.663C168.069 164.448 167.455 165.069 166.67 165.525C165.884 165.968 164.998 166.19 164.01 166.19ZM164.01 164.119C164.554 164.119 165.036 163.98 165.454 163.701C165.884 163.422 166.22 163.049 166.461 162.58C166.714 162.111 166.834 161.579 166.822 160.984C166.834 160.376 166.714 159.838 166.461 159.369C166.22 158.9 165.884 158.533 165.454 158.267C165.036 157.988 164.554 157.849 164.01 157.849C163.465 157.849 162.971 157.988 162.528 158.267C162.097 158.533 161.761 158.907 161.521 159.388C161.28 159.857 161.16 160.389 161.16 160.984C161.16 161.579 161.28 162.111 161.521 162.58C161.761 163.049 162.097 163.422 162.528 163.701C162.971 163.98 163.465 164.119 164.01 164.119ZM174.22 166L170.002 155.987H172.548L175.398 163.473L174.904 163.606L177.906 155.987H180.395L175.968 166H174.22ZM186.519 166.19C185.468 166.19 184.537 165.968 183.726 165.525C182.928 165.082 182.301 164.48 181.845 163.72C181.402 162.947 181.18 162.067 181.18 161.079C181.18 160.294 181.307 159.578 181.56 158.932C181.813 158.286 182.162 157.729 182.605 157.26C183.061 156.779 183.599 156.411 184.22 156.158C184.853 155.892 185.544 155.759 186.291 155.759C186.95 155.759 187.564 155.886 188.134 156.139C188.704 156.392 189.198 156.741 189.616 157.184C190.034 157.615 190.351 158.134 190.566 158.742C190.794 159.337 190.902 159.99 190.889 160.699L190.87 161.516H182.757L182.32 159.92H188.913L188.609 160.243V159.825C188.571 159.432 188.444 159.09 188.229 158.799C188.014 158.495 187.735 158.261 187.393 158.096C187.064 157.919 186.696 157.83 186.291 157.83C185.67 157.83 185.145 157.95 184.714 158.191C184.296 158.432 183.979 158.78 183.764 159.236C183.549 159.679 183.441 160.237 183.441 160.908C183.441 161.554 183.574 162.118 183.84 162.599C184.119 163.08 184.505 163.454 184.999 163.72C185.506 163.973 186.095 164.1 186.766 164.1C187.235 164.1 187.665 164.024 188.058 163.872C188.451 163.72 188.875 163.448 189.331 163.055L190.49 164.67C190.148 164.987 189.755 165.259 189.312 165.487C188.881 165.702 188.425 165.873 187.944 166C187.463 166.127 186.988 166.19 186.519 166.19ZM192.959 166V155.987H195.258L195.296 159.179L194.973 158.457C195.112 157.95 195.353 157.494 195.695 157.089C196.037 156.684 196.429 156.367 196.873 156.139C197.329 155.898 197.804 155.778 198.298 155.778C198.513 155.778 198.716 155.797 198.906 155.835C199.108 155.873 199.273 155.917 199.4 155.968L198.773 158.533C198.633 158.457 198.462 158.394 198.26 158.343C198.057 158.292 197.854 158.267 197.652 158.267C197.335 158.267 197.031 158.33 196.74 158.457C196.461 158.571 196.214 158.736 195.999 158.951C195.783 159.166 195.612 159.42 195.486 159.711C195.372 159.99 195.315 160.306 195.315 160.661V166H192.959ZM205.222 166.19C204.171 166.19 203.24 165.968 202.429 165.525C201.631 165.082 201.004 164.48 200.548 163.72C200.105 162.947 199.883 162.067 199.883 161.079C199.883 160.294 200.01 159.578 200.263 158.932C200.516 158.286 200.865 157.729 201.308 157.26C201.764 156.779 202.302 156.411 202.923 156.158C203.556 155.892 204.247 155.759 204.994 155.759C205.653 155.759 206.267 155.886 206.837 156.139C207.407 156.392 207.901 156.741 208.319 157.184C208.737 157.615 209.054 158.134 209.269 158.742C209.497 159.337 209.605 159.99 209.592 160.699L209.573 161.516H201.46L201.023 159.92H207.616L207.312 160.243V159.825C207.274 159.432 207.147 159.09 206.932 158.799C206.717 158.495 206.438 158.261 206.096 158.096C205.767 157.919 205.399 157.83 204.994 157.83C204.373 157.83 203.848 157.95 203.417 158.191C202.999 158.432 202.682 158.78 202.467 159.236C202.252 159.679 202.144 160.237 202.144 160.908C202.144 161.554 202.277 162.118 202.543 162.599C202.822 163.08 203.208 163.454 203.702 163.72C204.209 163.973 204.798 164.1 205.469 164.1C205.938 164.1 206.368 164.024 206.761 163.872C207.154 163.72 207.578 163.448 208.034 163.055L209.193 164.67C208.851 164.987 208.458 165.259 208.015 165.487C207.584 165.702 207.128 165.873 206.647 166C206.166 166.127 205.691 166.19 205.222 166.19ZM215.69 166.19C214.803 166.19 214.005 165.968 213.296 165.525C212.599 165.069 212.042 164.455 211.624 163.682C211.219 162.897 211.016 161.997 211.016 160.984C211.016 159.983 211.219 159.09 211.624 158.305C212.029 157.52 212.58 156.905 213.277 156.462C213.986 156.006 214.784 155.778 215.671 155.778C216.152 155.778 216.615 155.854 217.058 156.006C217.514 156.158 217.919 156.367 218.274 156.633C218.629 156.886 218.907 157.171 219.11 157.488C219.325 157.805 219.446 158.134 219.471 158.476L218.844 158.552V151.94H221.181V166H218.92L218.863 163.644L219.319 163.682C219.306 163.999 219.192 164.303 218.977 164.594C218.774 164.885 218.508 165.151 218.179 165.392C217.85 165.633 217.463 165.829 217.02 165.981C216.589 166.12 216.146 166.19 215.69 166.19ZM216.146 164.214C216.691 164.214 217.172 164.075 217.59 163.796C218.008 163.517 218.331 163.137 218.559 162.656C218.8 162.175 218.92 161.617 218.92 160.984C218.92 160.363 218.8 159.812 218.559 159.331C218.331 158.837 218.008 158.457 217.59 158.191C217.172 157.912 216.691 157.773 216.146 157.773C215.601 157.773 215.12 157.912 214.702 158.191C214.284 158.457 213.955 158.837 213.714 159.331C213.486 159.812 213.372 160.363 213.372 160.984C213.372 161.617 213.486 162.175 213.714 162.656C213.955 163.137 214.284 163.517 214.702 163.796C215.12 164.075 215.601 164.214 216.146 164.214Z" fill="#4B4B4B"/>
<defs>
<linearGradient id="paint0_linear_749_1190" x1="87.1786" y1="104" x2="185.911" y2="110.312" gradientUnits="userSpaceOnUse">
<stop stop-color="#4C9536"/>
<stop offset="1" stop-color="#10B1D1"/>
</linearGradient>
</defs>
</svg>
