<svg width="252" height="252" viewBox="0 0 252 252" fill="none" xmlns="http://www.w3.org/2000/svg">
<circle cx="126" cy="126" r="126" fill="#F7F9FB"/>
<circle cx="133.5" cy="129.5" r="110.5" fill="#EAF3FA"/>
<path d="M101.15 130.9C97.2 130.9 93.825 130.225 91.025 128.875C88.225 127.475 86.05 125.6 84.5 123.25C82.95 120.85 82.075 118.15 81.875 115.15H92.825C93.125 116.85 94.025 118.325 95.525 119.575C97.075 120.775 98.95 121.375 101.15 121.375C102.75 121.375 104.15 120.975 105.35 120.175C106.6 119.325 107.55 118.2 108.2 116.8C108.9 115.35 109.25 113.75 109.25 112C109.25 110.15 108.9 108.575 108.2 107.275C107.5 105.925 106.55 104.925 105.35 104.275C104.15 103.575 102.775 103.225 101.225 103.225C99.375 103.225 97.75 103.7 96.35 104.65C94.95 105.55 93.95 106.65 93.35 107.95H82.475L86.825 77.5H116.825V87.325H95.15L93.2 97.675C94.25 96.625 95.65 95.775 97.4 95.125C99.2 94.475 101.175 94.15 103.325 94.15C106.225 94.15 108.725 94.65 110.825 95.65C112.925 96.6 114.675 97.925 116.075 99.625C117.475 101.325 118.5 103.225 119.15 105.325C119.8 107.425 120.125 109.6 120.125 111.85C120.125 114.7 119.65 117.3 118.7 119.65C117.75 121.95 116.425 123.95 114.725 125.65C113.025 127.3 111 128.6 108.65 129.55C106.35 130.45 103.85 130.9 101.15 130.9ZM150.5 130.9C145.65 130.9 141.5 129.75 138.05 127.45C134.6 125.15 131.925 121.975 130.025 117.925C128.175 113.825 127.25 109.1 127.25 103.75C127.25 98.4 128.175 93.7 130.025 89.65C131.925 85.55 134.6 82.35 138.05 80.05C141.5 77.75 145.65 76.6 150.5 76.6C155.35 76.6 159.5 77.75 162.95 80.05C166.4 82.35 169.05 85.55 170.9 89.65C172.8 93.7 173.75 98.4 173.75 103.75C173.75 109.1 172.8 113.825 170.9 117.925C169.05 121.975 166.4 125.15 162.95 127.45C159.5 129.75 155.35 130.9 150.5 130.9ZM150.5 120.775C152.85 120.775 154.9 120.075 156.65 118.675C158.45 117.275 159.825 115.325 160.775 112.825C161.775 110.275 162.275 107.25 162.275 103.75C162.275 100.25 161.775 97.25 160.775 94.75C159.825 92.2 158.45 90.25 156.65 88.9C154.9 87.5 152.85 86.8 150.5 86.8C148.15 86.8 146.075 87.5 144.275 88.9C142.525 90.25 141.15 92.2 140.15 94.75C139.2 97.25 138.725 100.25 138.725 103.75C138.725 107.25 139.2 110.275 140.15 112.825C141.15 115.325 142.525 117.275 144.275 118.675C146.075 120.075 148.15 120.775 150.5 120.775ZM189.827 126.81V101.4H196.757V126.81H189.827ZM179.597 117.515V110.64H206.932V117.515H179.597Z" fill="url(#paint0_linear_749_1189)"/>
<path d="M46.2962 166.19C45.3335 166.19 44.4532 166.025 43.6552 165.696C42.8572 165.367 42.1669 164.898 41.5842 164.29C41.0015 163.669 40.5455 162.941 40.2162 162.105C39.8995 161.256 39.7412 160.332 39.7412 159.331C39.7412 158.368 39.9122 157.475 40.2542 156.652C40.5962 155.829 41.0712 155.107 41.6792 154.486C42.2872 153.865 42.9965 153.384 43.8072 153.042C44.6179 152.7 45.4982 152.529 46.4482 152.529C47.0942 152.529 47.7212 152.624 48.3292 152.814C48.9372 153.004 49.4945 153.27 50.0012 153.612C50.5079 153.941 50.9322 154.328 51.2742 154.771L49.6972 156.5C49.3679 156.158 49.0259 155.873 48.6712 155.645C48.3292 155.404 47.9682 155.227 47.5882 155.113C47.2209 154.986 46.8409 154.923 46.4482 154.923C45.8655 154.923 45.3145 155.031 44.7952 155.246C44.2885 155.461 43.8452 155.765 43.4652 156.158C43.0979 156.551 42.8065 157.019 42.5912 157.564C42.3759 158.096 42.2682 158.691 42.2682 159.35C42.2682 160.021 42.3695 160.629 42.5722 161.174C42.7875 161.719 43.0852 162.187 43.4652 162.58C43.8579 162.973 44.3202 163.277 44.8522 163.492C45.3969 163.695 45.9922 163.796 46.6382 163.796C47.0562 163.796 47.4615 163.739 47.8542 163.625C48.2469 163.511 48.6079 163.353 48.9372 163.15C49.2792 162.935 49.5895 162.688 49.8682 162.409L51.0842 164.366C50.7802 164.708 50.3749 165.018 49.8682 165.297C49.3615 165.576 48.7915 165.797 48.1582 165.962C47.5375 166.114 46.9169 166.19 46.2962 166.19ZM57.8025 166.19C56.8018 166.19 55.9088 165.968 55.1235 165.525C54.3381 165.069 53.7175 164.448 53.2615 163.663C52.8055 162.878 52.5775 161.985 52.5775 160.984C52.5775 159.983 52.8055 159.09 53.2615 158.305C53.7175 157.52 54.3381 156.905 55.1235 156.462C55.9088 156.006 56.8018 155.778 57.8025 155.778C58.7905 155.778 59.6771 156.006 60.4625 156.462C61.2478 156.905 61.8621 157.52 62.3055 158.305C62.7615 159.09 62.9895 159.983 62.9895 160.984C62.9895 161.985 62.7615 162.878 62.3055 163.663C61.8621 164.448 61.2478 165.069 60.4625 165.525C59.6771 165.968 58.7905 166.19 57.8025 166.19ZM57.8025 164.119C58.3471 164.119 58.8285 163.98 59.2465 163.701C59.6771 163.422 60.0128 163.049 60.2535 162.58C60.5068 162.111 60.6271 161.579 60.6145 160.984C60.6271 160.376 60.5068 159.838 60.2535 159.369C60.0128 158.9 59.6771 158.533 59.2465 158.267C58.8285 157.988 58.3471 157.849 57.8025 157.849C57.2578 157.849 56.7638 157.988 56.3205 158.267C55.8898 158.533 55.5541 158.907 55.3135 159.388C55.0728 159.857 54.9525 160.389 54.9525 160.984C54.9525 161.579 55.0728 162.111 55.3135 162.58C55.5541 163.049 55.8898 163.422 56.3205 163.701C56.7638 163.98 57.2578 164.119 57.8025 164.119ZM65.0419 166V155.987H67.3409L67.3789 158.001L66.9989 158.153C67.1129 157.824 67.2839 157.52 67.5119 157.241C67.7399 156.95 68.0122 156.703 68.3289 156.5C68.6456 156.285 68.9812 156.12 69.3359 156.006C69.6906 155.879 70.0516 155.816 70.4189 155.816C70.9636 155.816 71.4449 155.905 71.8629 156.082C72.2936 156.247 72.6482 156.513 72.9269 156.88C73.2182 157.247 73.4336 157.716 73.5729 158.286L73.2119 158.21L73.3639 157.906C73.5032 157.602 73.6996 157.33 73.9529 157.089C74.2062 156.836 74.4912 156.614 74.8079 156.424C75.1246 156.221 75.4539 156.069 75.7959 155.968C76.1506 155.867 76.4989 155.816 76.8409 155.816C77.6009 155.816 78.2342 155.968 78.7409 156.272C79.2476 156.576 79.6276 157.038 79.8809 157.659C80.1342 158.28 80.2609 159.046 80.2609 159.958V166H77.9049V160.11C77.9049 159.603 77.8352 159.185 77.6959 158.856C77.5692 158.527 77.3666 158.286 77.0879 158.134C76.8219 157.969 76.4862 157.887 76.0809 157.887C75.7642 157.887 75.4602 157.944 75.1689 158.058C74.8902 158.159 74.6496 158.311 74.4469 158.514C74.2442 158.704 74.0859 158.926 73.9719 159.179C73.8579 159.432 73.8009 159.711 73.8009 160.015V166H71.4449V160.091C71.4449 159.61 71.3752 159.211 71.2359 158.894C71.0966 158.565 70.8939 158.318 70.6279 158.153C70.3619 157.976 70.0389 157.887 69.6589 157.887C69.3422 157.887 69.0446 157.944 68.7659 158.058C68.4872 158.159 68.2466 158.305 68.0439 158.495C67.8412 158.685 67.6829 158.907 67.5689 159.16C67.4549 159.413 67.3979 159.692 67.3979 159.996V166H65.0419ZM82.8173 166V155.987H85.1163L85.1543 158.001L84.7743 158.153C84.8883 157.824 85.0593 157.52 85.2873 157.241C85.5153 156.95 85.7876 156.703 86.1043 156.5C86.421 156.285 86.7566 156.12 87.1113 156.006C87.466 155.879 87.827 155.816 88.1943 155.816C88.739 155.816 89.2203 155.905 89.6383 156.082C90.069 156.247 90.4236 156.513 90.7023 156.88C90.9936 157.247 91.209 157.716 91.3483 158.286L90.9873 158.21L91.1393 157.906C91.2786 157.602 91.475 157.33 91.7283 157.089C91.9816 156.836 92.2666 156.614 92.5833 156.424C92.9 156.221 93.2293 156.069 93.5713 155.968C93.926 155.867 94.2743 155.816 94.6163 155.816C95.3763 155.816 96.0096 155.968 96.5163 156.272C97.023 156.576 97.403 157.038 97.6563 157.659C97.9096 158.28 98.0363 159.046 98.0363 159.958V166H95.6803V160.11C95.6803 159.603 95.6106 159.185 95.4713 158.856C95.3446 158.527 95.142 158.286 94.8633 158.134C94.5973 157.969 94.2616 157.887 93.8563 157.887C93.5396 157.887 93.2356 157.944 92.9443 158.058C92.6656 158.159 92.425 158.311 92.2223 158.514C92.0196 158.704 91.8613 158.926 91.7473 159.179C91.6333 159.432 91.5763 159.711 91.5763 160.015V166H89.2203V160.091C89.2203 159.61 89.1506 159.211 89.0113 158.894C88.872 158.565 88.6693 158.318 88.4033 158.153C88.1373 157.976 87.8143 157.887 87.4343 157.887C87.1176 157.887 86.82 157.944 86.5413 158.058C86.2626 158.159 86.022 158.305 85.8193 158.495C85.6166 158.685 85.4583 158.907 85.3443 159.16C85.2303 159.413 85.1733 159.692 85.1733 159.996V166H82.8173ZM104.108 166.19C103.386 166.19 102.759 166.032 102.227 165.715C101.695 165.386 101.289 164.923 101.011 164.328C100.732 163.72 100.593 162.998 100.593 162.162V155.987H102.93V161.668C102.93 162.2 103.012 162.656 103.177 163.036C103.341 163.403 103.582 163.688 103.899 163.891C104.215 164.094 104.595 164.195 105.039 164.195C105.368 164.195 105.666 164.144 105.932 164.043C106.21 163.929 106.451 163.777 106.654 163.587C106.856 163.384 107.015 163.15 107.129 162.884C107.243 162.605 107.3 162.308 107.3 161.991V155.987H109.637V166H107.357L107.319 163.91L107.737 163.682C107.585 164.163 107.325 164.594 106.958 164.974C106.603 165.341 106.179 165.639 105.685 165.867C105.191 166.082 104.665 166.19 104.108 166.19ZM112.376 166V155.987H114.656L114.694 158.039L114.257 158.267C114.383 157.811 114.63 157.399 114.998 157.032C115.365 156.652 115.802 156.348 116.309 156.12C116.815 155.892 117.335 155.778 117.867 155.778C118.627 155.778 119.26 155.93 119.767 156.234C120.286 156.538 120.672 156.994 120.926 157.602C121.192 158.21 121.325 158.97 121.325 159.882V166H118.988V160.053C118.988 159.546 118.918 159.128 118.779 158.799C118.639 158.457 118.424 158.21 118.133 158.058C117.841 157.893 117.487 157.817 117.069 157.83C116.727 157.83 116.41 157.887 116.119 158.001C115.84 158.102 115.593 158.254 115.378 158.457C115.175 158.647 115.01 158.869 114.884 159.122C114.77 159.375 114.713 159.654 114.713 159.958V166H113.554C113.326 166 113.11 166 112.908 166C112.718 166 112.54 166 112.376 166ZM124.22 166V155.987H126.557V166H124.22ZM125.36 153.859C124.891 153.859 124.524 153.745 124.258 153.517C124.005 153.276 123.878 152.941 123.878 152.51C123.878 152.105 124.011 151.775 124.277 151.522C124.543 151.269 124.904 151.142 125.36 151.142C125.841 151.142 126.209 151.262 126.462 151.503C126.728 151.731 126.861 152.067 126.861 152.51C126.861 152.903 126.728 153.226 126.462 153.479C126.196 153.732 125.829 153.859 125.36 153.859ZM130.603 166V153.441H132.94V166H130.603ZM128.627 158.153V155.987H135.125V158.153H128.627ZM138.425 170.37L140.553 165.449L140.572 167.007L135.632 155.987H138.33L141.085 162.523C141.174 162.688 141.262 162.909 141.351 163.188C141.44 163.454 141.516 163.72 141.579 163.986L141.104 164.138C141.193 163.897 141.288 163.644 141.389 163.378C141.49 163.099 141.585 162.814 141.674 162.523L144.03 155.987H146.747L142.567 166L140.857 170.37H138.425ZM158.426 166.19C157.653 166.19 156.944 166.095 156.298 165.905C155.652 165.702 155.069 165.405 154.55 165.012C154.031 164.619 153.568 164.144 153.163 163.587L154.778 161.763C155.399 162.624 156.007 163.22 156.602 163.549C157.197 163.878 157.869 164.043 158.616 164.043C159.047 164.043 159.439 163.98 159.794 163.853C160.149 163.714 160.427 163.53 160.63 163.302C160.833 163.061 160.934 162.789 160.934 162.485C160.934 162.27 160.89 162.073 160.801 161.896C160.725 161.706 160.605 161.541 160.44 161.402C160.275 161.25 160.073 161.111 159.832 160.984C159.591 160.857 159.319 160.75 159.015 160.661C158.711 160.572 158.375 160.49 158.008 160.414C157.311 160.275 156.703 160.091 156.184 159.863C155.665 159.622 155.228 159.331 154.873 158.989C154.518 158.634 154.259 158.242 154.094 157.811C153.929 157.368 153.847 156.867 153.847 156.31C153.847 155.753 153.967 155.24 154.208 154.771C154.461 154.302 154.803 153.897 155.234 153.555C155.665 153.213 156.165 152.947 156.735 152.757C157.305 152.567 157.919 152.472 158.578 152.472C159.325 152.472 159.99 152.561 160.573 152.738C161.168 152.915 161.688 153.181 162.131 153.536C162.587 153.878 162.961 154.296 163.252 154.79L161.618 156.405C161.365 156.012 161.08 155.689 160.763 155.436C160.446 155.17 160.104 154.974 159.737 154.847C159.37 154.708 158.983 154.638 158.578 154.638C158.122 154.638 157.723 154.701 157.381 154.828C157.052 154.955 156.792 155.138 156.602 155.379C156.412 155.607 156.317 155.886 156.317 156.215C156.317 156.468 156.374 156.696 156.488 156.899C156.602 157.089 156.76 157.26 156.963 157.412C157.178 157.564 157.451 157.697 157.78 157.811C158.109 157.925 158.483 158.026 158.901 158.115C159.598 158.254 160.225 158.444 160.782 158.685C161.339 158.913 161.814 159.192 162.207 159.521C162.6 159.838 162.897 160.205 163.1 160.623C163.303 161.028 163.404 161.484 163.404 161.991C163.404 162.865 163.195 163.619 162.777 164.252C162.372 164.873 161.795 165.354 161.048 165.696C160.301 166.025 159.427 166.19 158.426 166.19ZM170.395 166.19C169.344 166.19 168.413 165.968 167.602 165.525C166.804 165.082 166.177 164.48 165.721 163.72C165.278 162.947 165.056 162.067 165.056 161.079C165.056 160.294 165.183 159.578 165.436 158.932C165.689 158.286 166.038 157.729 166.481 157.26C166.937 156.779 167.475 156.411 168.096 156.158C168.729 155.892 169.42 155.759 170.167 155.759C170.826 155.759 171.44 155.886 172.01 156.139C172.58 156.392 173.074 156.741 173.492 157.184C173.91 157.615 174.227 158.134 174.442 158.742C174.67 159.337 174.778 159.99 174.765 160.699L174.746 161.516H166.633L166.196 159.92H172.789L172.485 160.243V159.825C172.447 159.432 172.32 159.09 172.105 158.799C171.89 158.495 171.611 158.261 171.269 158.096C170.94 157.919 170.572 157.83 170.167 157.83C169.546 157.83 169.021 157.95 168.59 158.191C168.172 158.432 167.855 158.78 167.64 159.236C167.425 159.679 167.317 160.237 167.317 160.908C167.317 161.554 167.45 162.118 167.716 162.599C167.995 163.08 168.381 163.454 168.875 163.72C169.382 163.973 169.971 164.1 170.642 164.1C171.111 164.1 171.541 164.024 171.934 163.872C172.327 163.72 172.751 163.448 173.207 163.055L174.366 164.67C174.024 164.987 173.631 165.259 173.188 165.487C172.757 165.702 172.301 165.873 171.82 166C171.339 166.127 170.864 166.19 170.395 166.19ZM180.179 166.19C179.292 166.19 178.494 166.044 177.785 165.753C177.088 165.449 176.518 165.018 176.075 164.461L177.595 163.15C177.975 163.581 178.399 163.891 178.868 164.081C179.336 164.271 179.83 164.366 180.35 164.366C180.565 164.366 180.755 164.341 180.92 164.29C181.097 164.239 181.249 164.163 181.376 164.062C181.502 163.961 181.597 163.847 181.661 163.72C181.737 163.581 181.775 163.429 181.775 163.264C181.775 162.96 181.661 162.719 181.433 162.542C181.306 162.453 181.103 162.358 180.825 162.257C180.559 162.156 180.21 162.054 179.78 161.953C179.096 161.776 178.526 161.573 178.07 161.345C177.614 161.104 177.259 160.838 177.006 160.547C176.79 160.306 176.626 160.034 176.512 159.73C176.41 159.426 176.36 159.097 176.36 158.742C176.36 158.299 176.455 157.9 176.645 157.545C176.847 157.178 177.12 156.861 177.462 156.595C177.804 156.329 178.203 156.126 178.659 155.987C179.115 155.848 179.59 155.778 180.084 155.778C180.59 155.778 181.078 155.841 181.547 155.968C182.028 156.095 182.471 156.278 182.877 156.519C183.295 156.747 183.649 157.026 183.941 157.355L182.649 158.78C182.408 158.552 182.142 158.349 181.851 158.172C181.572 157.995 181.287 157.855 180.996 157.754C180.704 157.64 180.432 157.583 180.179 157.583C179.938 157.583 179.723 157.608 179.533 157.659C179.343 157.697 179.184 157.76 179.058 157.849C178.931 157.938 178.83 158.052 178.754 158.191C178.69 158.318 178.659 158.47 178.659 158.647C178.671 158.799 178.709 158.945 178.773 159.084C178.849 159.211 178.95 159.318 179.077 159.407C179.216 159.496 179.425 159.597 179.704 159.711C179.982 159.825 180.343 159.933 180.787 160.034C181.407 160.199 181.927 160.382 182.345 160.585C182.763 160.788 183.092 161.022 183.333 161.288C183.573 161.516 183.744 161.782 183.846 162.086C183.947 162.39 183.998 162.726 183.998 163.093C183.998 163.688 183.827 164.22 183.485 164.689C183.155 165.158 182.699 165.525 182.117 165.791C181.547 166.057 180.901 166.19 180.179 166.19ZM189.4 166.19C188.514 166.19 187.716 166.044 187.006 165.753C186.31 165.449 185.74 165.018 185.296 164.461L186.816 163.15C187.196 163.581 187.621 163.891 188.089 164.081C188.558 164.271 189.052 164.366 189.571 164.366C189.787 164.366 189.977 164.341 190.141 164.29C190.319 164.239 190.471 164.163 190.597 164.062C190.724 163.961 190.819 163.847 190.882 163.72C190.958 163.581 190.996 163.429 190.996 163.264C190.996 162.96 190.882 162.719 190.654 162.542C190.528 162.453 190.325 162.358 190.046 162.257C189.78 162.156 189.432 162.054 189.001 161.953C188.317 161.776 187.747 161.573 187.291 161.345C186.835 161.104 186.481 160.838 186.227 160.547C186.012 160.306 185.847 160.034 185.733 159.73C185.632 159.426 185.581 159.097 185.581 158.742C185.581 158.299 185.676 157.9 185.866 157.545C186.069 157.178 186.341 156.861 186.683 156.595C187.025 156.329 187.424 156.126 187.88 155.987C188.336 155.848 188.811 155.778 189.305 155.778C189.812 155.778 190.3 155.841 190.768 155.968C191.25 156.095 191.693 156.278 192.098 156.519C192.516 156.747 192.871 157.026 193.162 157.355L191.87 158.78C191.63 158.552 191.364 158.349 191.072 158.172C190.794 157.995 190.509 157.855 190.217 157.754C189.926 157.64 189.654 157.583 189.4 157.583C189.16 157.583 188.944 157.608 188.754 157.659C188.564 157.697 188.406 157.76 188.279 157.849C188.153 157.938 188.051 158.052 187.975 158.191C187.912 158.318 187.88 158.47 187.88 158.647C187.893 158.799 187.931 158.945 187.994 159.084C188.07 159.211 188.172 159.318 188.298 159.407C188.438 159.496 188.647 159.597 188.925 159.711C189.204 159.825 189.565 159.933 190.008 160.034C190.629 160.199 191.148 160.382 191.566 160.585C191.984 160.788 192.314 161.022 192.554 161.288C192.795 161.516 192.966 161.782 193.067 162.086C193.169 162.39 193.219 162.726 193.219 163.093C193.219 163.688 193.048 164.22 192.706 164.689C192.377 165.158 191.921 165.525 191.338 165.791C190.768 166.057 190.122 166.19 189.4 166.19ZM195.544 166V155.987H197.881V166H195.544ZM196.684 153.859C196.215 153.859 195.848 153.745 195.582 153.517C195.329 153.276 195.202 152.941 195.202 152.51C195.202 152.105 195.335 151.775 195.601 151.522C195.867 151.269 196.228 151.142 196.684 151.142C197.165 151.142 197.533 151.262 197.786 151.503C198.052 151.731 198.185 152.067 198.185 152.51C198.185 152.903 198.052 153.226 197.786 153.479C197.52 153.732 197.153 153.859 196.684 153.859ZM205.424 166.19C204.423 166.19 203.53 165.968 202.745 165.525C201.959 165.069 201.339 164.448 200.883 163.663C200.427 162.878 200.199 161.985 200.199 160.984C200.199 159.983 200.427 159.09 200.883 158.305C201.339 157.52 201.959 156.905 202.745 156.462C203.53 156.006 204.423 155.778 205.424 155.778C206.412 155.778 207.298 156.006 208.084 156.462C208.869 156.905 209.483 157.52 209.927 158.305C210.383 159.09 210.611 159.983 210.611 160.984C210.611 161.985 210.383 162.878 209.927 163.663C209.483 164.448 208.869 165.069 208.084 165.525C207.298 165.968 206.412 166.19 205.424 166.19ZM205.424 164.119C205.968 164.119 206.45 163.98 206.868 163.701C207.298 163.422 207.634 163.049 207.875 162.58C208.128 162.111 208.248 161.579 208.236 160.984C208.248 160.376 208.128 159.838 207.875 159.369C207.634 158.9 207.298 158.533 206.868 158.267C206.45 157.988 205.968 157.849 205.424 157.849C204.879 157.849 204.385 157.988 203.942 158.267C203.511 158.533 203.175 158.907 202.935 159.388C202.694 159.857 202.574 160.389 202.574 160.984C202.574 161.579 202.694 162.111 202.935 162.58C203.175 163.049 203.511 163.422 203.942 163.701C204.385 163.98 204.879 164.119 205.424 164.119ZM212.701 166V155.987H214.981L215.019 158.039L214.582 158.267C214.709 157.811 214.956 157.399 215.323 157.032C215.69 156.652 216.127 156.348 216.634 156.12C217.141 155.892 217.66 155.778 218.192 155.778C218.952 155.778 219.585 155.93 220.092 156.234C220.611 156.538 220.998 156.994 221.251 157.602C221.517 158.21 221.65 158.97 221.65 159.882V166H219.313V160.053C219.313 159.546 219.243 159.128 219.104 158.799C218.965 158.457 218.749 158.21 218.458 158.058C218.167 157.893 217.812 157.817 217.394 157.83C217.052 157.83 216.735 157.887 216.444 158.001C216.165 158.102 215.918 158.254 215.703 158.457C215.5 158.647 215.336 158.869 215.209 159.122C215.095 159.375 215.038 159.654 215.038 159.958V166H213.879C213.651 166 213.436 166 213.233 166C213.043 166 212.866 166 212.701 166ZM227.623 166.19C226.736 166.19 225.938 166.044 225.229 165.753C224.532 165.449 223.962 165.018 223.519 164.461L225.039 163.15C225.419 163.581 225.843 163.891 226.312 164.081C226.781 164.271 227.275 164.366 227.794 164.366C228.009 164.366 228.199 164.341 228.364 164.29C228.541 164.239 228.693 164.163 228.82 164.062C228.947 163.961 229.042 163.847 229.105 163.72C229.181 163.581 229.219 163.429 229.219 163.264C229.219 162.96 229.105 162.719 228.877 162.542C228.75 162.453 228.548 162.358 228.269 162.257C228.003 162.156 227.655 162.054 227.224 161.953C226.54 161.776 225.97 161.573 225.514 161.345C225.058 161.104 224.703 160.838 224.45 160.547C224.235 160.306 224.07 160.034 223.956 159.73C223.855 159.426 223.804 159.097 223.804 158.742C223.804 158.299 223.899 157.9 224.089 157.545C224.292 157.178 224.564 156.861 224.906 156.595C225.248 156.329 225.647 156.126 226.103 155.987C226.559 155.848 227.034 155.778 227.528 155.778C228.035 155.778 228.522 155.841 228.991 155.968C229.472 156.095 229.916 156.278 230.321 156.519C230.739 156.747 231.094 157.026 231.385 157.355L230.093 158.78C229.852 158.552 229.586 158.349 229.295 158.172C229.016 157.995 228.731 157.855 228.44 157.754C228.149 157.64 227.876 157.583 227.623 157.583C227.382 157.583 227.167 157.608 226.977 157.659C226.787 157.697 226.629 157.76 226.502 157.849C226.375 157.938 226.274 158.052 226.198 158.191C226.135 158.318 226.103 158.47 226.103 158.647C226.116 158.799 226.154 158.945 226.217 159.084C226.293 159.211 226.394 159.318 226.521 159.407C226.66 159.496 226.869 159.597 227.148 159.711C227.427 159.825 227.788 159.933 228.231 160.034C228.852 160.199 229.371 160.382 229.789 160.585C230.207 160.788 230.536 161.022 230.777 161.288C231.018 161.516 231.189 161.782 231.29 162.086C231.391 162.39 231.442 162.726 231.442 163.093C231.442 163.688 231.271 164.22 230.929 164.689C230.6 165.158 230.144 165.525 229.561 165.791C228.991 166.057 228.345 166.19 227.623 166.19ZM92.1912 190.19C91.2285 190.19 90.3482 190.025 89.5502 189.696C88.7522 189.367 88.0619 188.898 87.4792 188.29C86.8965 187.669 86.4405 186.941 86.1112 186.105C85.7945 185.256 85.6362 184.332 85.6362 183.331C85.6362 182.368 85.8072 181.475 86.1492 180.652C86.4912 179.829 86.9662 179.107 87.5742 178.486C88.1822 177.865 88.8915 177.384 89.7022 177.042C90.5129 176.7 91.3932 176.529 92.3432 176.529C92.9892 176.529 93.6162 176.624 94.2242 176.814C94.8322 177.004 95.3895 177.27 95.8962 177.612C96.4029 177.941 96.8272 178.328 97.1692 178.771L95.5922 180.5C95.2629 180.158 94.9209 179.873 94.5662 179.645C94.2242 179.404 93.8632 179.227 93.4832 179.113C93.1159 178.986 92.7359 178.923 92.3432 178.923C91.7605 178.923 91.2095 179.031 90.6902 179.246C90.1835 179.461 89.7402 179.765 89.3602 180.158C88.9929 180.551 88.7015 181.019 88.4862 181.564C88.2709 182.096 88.1632 182.691 88.1632 183.35C88.1632 184.021 88.2645 184.629 88.4672 185.174C88.6825 185.719 88.9802 186.187 89.3602 186.58C89.7529 186.973 90.2152 187.277 90.7472 187.492C91.2919 187.695 91.8872 187.796 92.5332 187.796C92.9512 187.796 93.3565 187.739 93.7492 187.625C94.1419 187.511 94.5029 187.353 94.8322 187.15C95.1742 186.935 95.4845 186.688 95.7632 186.409L96.9792 188.366C96.6752 188.708 96.2699 189.018 95.7632 189.297C95.2565 189.576 94.6865 189.797 94.0532 189.962C93.4325 190.114 92.8119 190.19 92.1912 190.19ZM103.697 190.19C102.697 190.19 101.804 189.968 101.018 189.525C100.233 189.069 99.6125 188.448 99.1565 187.663C98.7005 186.878 98.4725 185.985 98.4725 184.984C98.4725 183.983 98.7005 183.09 99.1565 182.305C99.6125 181.52 100.233 180.905 101.018 180.462C101.804 180.006 102.697 179.778 103.697 179.778C104.685 179.778 105.572 180.006 106.357 180.462C107.143 180.905 107.757 181.52 108.2 182.305C108.656 183.09 108.884 183.983 108.884 184.984C108.884 185.985 108.656 186.878 108.2 187.663C107.757 188.448 107.143 189.069 106.357 189.525C105.572 189.968 104.685 190.19 103.697 190.19ZM103.697 188.119C104.242 188.119 104.723 187.98 105.141 187.701C105.572 187.422 105.908 187.049 106.148 186.58C106.402 186.111 106.522 185.579 106.509 184.984C106.522 184.376 106.402 183.838 106.148 183.369C105.908 182.9 105.572 182.533 105.141 182.267C104.723 181.988 104.242 181.849 103.697 181.849C103.153 181.849 102.659 181.988 102.215 182.267C101.785 182.533 101.449 182.907 101.208 183.388C100.968 183.857 100.847 184.389 100.847 184.984C100.847 185.579 100.968 186.111 101.208 186.58C101.449 187.049 101.785 187.422 102.215 187.701C102.659 187.98 103.153 188.119 103.697 188.119ZM110.975 190V179.987H113.255L113.293 182.039L112.856 182.267C112.983 181.811 113.23 181.399 113.597 181.032C113.964 180.652 114.401 180.348 114.908 180.12C115.415 179.892 115.934 179.778 116.466 179.778C117.226 179.778 117.859 179.93 118.366 180.234C118.885 180.538 119.272 180.994 119.525 181.602C119.791 182.21 119.924 182.97 119.924 183.882V190H117.587V184.053C117.587 183.546 117.517 183.128 117.378 182.799C117.239 182.457 117.023 182.21 116.732 182.058C116.441 181.893 116.086 181.817 115.668 181.83C115.326 181.83 115.009 181.887 114.718 182.001C114.439 182.102 114.192 182.254 113.977 182.457C113.774 182.647 113.61 182.869 113.483 183.122C113.369 183.375 113.312 183.654 113.312 183.958V190H112.153C111.925 190 111.71 190 111.507 190C111.317 190 111.14 190 110.975 190ZM126.581 190.19C125.694 190.19 124.896 189.968 124.187 189.525C123.49 189.069 122.933 188.455 122.515 187.682C122.11 186.897 121.907 185.997 121.907 184.984C121.907 183.983 122.11 183.09 122.515 182.305C122.92 181.52 123.471 180.905 124.168 180.462C124.877 180.006 125.675 179.778 126.562 179.778C127.043 179.778 127.506 179.854 127.949 180.006C128.405 180.158 128.81 180.367 129.165 180.633C129.52 180.886 129.798 181.171 130.001 181.488C130.216 181.805 130.337 182.134 130.362 182.476L129.735 182.552V175.94H132.072V190H129.811L129.754 187.644L130.21 187.682C130.197 187.999 130.083 188.303 129.868 188.594C129.665 188.885 129.399 189.151 129.07 189.392C128.741 189.633 128.354 189.829 127.911 189.981C127.48 190.12 127.037 190.19 126.581 190.19ZM127.037 188.214C127.582 188.214 128.063 188.075 128.481 187.796C128.899 187.517 129.222 187.137 129.45 186.656C129.691 186.175 129.811 185.617 129.811 184.984C129.811 184.363 129.691 183.812 129.45 183.331C129.222 182.837 128.899 182.457 128.481 182.191C128.063 181.912 127.582 181.773 127.037 181.773C126.492 181.773 126.011 181.912 125.593 182.191C125.175 182.457 124.846 182.837 124.605 183.331C124.377 183.812 124.263 184.363 124.263 184.984C124.263 185.617 124.377 186.175 124.605 186.656C124.846 187.137 125.175 187.517 125.593 187.796C126.011 188.075 126.492 188.214 127.037 188.214ZM138.499 190.19C137.777 190.19 137.15 190.032 136.618 189.715C136.086 189.386 135.68 188.923 135.402 188.328C135.123 187.72 134.984 186.998 134.984 186.162V179.987H137.321V185.668C137.321 186.2 137.403 186.656 137.568 187.036C137.732 187.403 137.973 187.688 138.29 187.891C138.606 188.094 138.986 188.195 139.43 188.195C139.759 188.195 140.057 188.144 140.323 188.043C140.601 187.929 140.842 187.777 141.045 187.587C141.247 187.384 141.406 187.15 141.52 186.884C141.634 186.605 141.691 186.308 141.691 185.991V179.987H144.028V190H141.748L141.71 187.91L142.128 187.682C141.976 188.163 141.716 188.594 141.349 188.974C140.994 189.341 140.57 189.639 140.076 189.867C139.582 190.082 139.056 190.19 138.499 190.19ZM151.061 190.19C150.124 190.19 149.281 189.962 148.534 189.506C147.787 189.05 147.198 188.429 146.767 187.644C146.336 186.859 146.121 185.972 146.121 184.984C146.121 183.996 146.336 183.109 146.767 182.324C147.198 181.539 147.787 180.918 148.534 180.462C149.281 180.006 150.124 179.778 151.061 179.778C151.96 179.778 152.777 179.949 153.512 180.291C154.247 180.633 154.817 181.108 155.222 181.716L153.93 183.274C153.74 183.008 153.499 182.767 153.208 182.552C152.917 182.337 152.606 182.166 152.277 182.039C151.948 181.912 151.618 181.849 151.289 181.849C150.732 181.849 150.231 181.988 149.788 182.267C149.357 182.533 149.015 182.907 148.762 183.388C148.509 183.857 148.382 184.389 148.382 184.984C148.382 185.579 148.509 186.111 148.762 186.58C149.028 187.049 149.383 187.422 149.826 187.701C150.269 187.98 150.763 188.119 151.308 188.119C151.637 188.119 151.954 188.068 152.258 187.967C152.575 187.853 152.872 187.695 153.151 187.492C153.43 187.289 153.689 187.036 153.93 186.732L155.222 188.309C154.791 188.866 154.196 189.322 153.436 189.677C152.689 190.019 151.897 190.19 151.061 190.19ZM158.092 190V177.441H160.429V190H158.092ZM156.116 182.153V179.987H162.614V182.153H156.116ZM168.994 190.19C167.943 190.19 167.012 189.968 166.201 189.525C165.403 189.082 164.776 188.48 164.32 187.72C163.877 186.947 163.655 186.067 163.655 185.079C163.655 184.294 163.782 183.578 164.035 182.932C164.288 182.286 164.637 181.729 165.08 181.26C165.536 180.779 166.074 180.411 166.695 180.158C167.328 179.892 168.019 179.759 168.766 179.759C169.425 179.759 170.039 179.886 170.609 180.139C171.179 180.392 171.673 180.741 172.091 181.184C172.509 181.615 172.826 182.134 173.041 182.742C173.269 183.337 173.377 183.99 173.364 184.699L173.345 185.516H165.232L164.795 183.92H171.388L171.084 184.243V183.825C171.046 183.432 170.919 183.09 170.704 182.799C170.489 182.495 170.21 182.261 169.868 182.096C169.539 181.919 169.171 181.83 168.766 181.83C168.145 181.83 167.62 181.95 167.189 182.191C166.771 182.432 166.454 182.78 166.239 183.236C166.024 183.679 165.916 184.237 165.916 184.908C165.916 185.554 166.049 186.118 166.315 186.599C166.594 187.08 166.98 187.454 167.474 187.72C167.981 187.973 168.57 188.1 169.241 188.1C169.71 188.1 170.14 188.024 170.533 187.872C170.926 187.72 171.35 187.448 171.806 187.055L172.965 188.67C172.623 188.987 172.23 189.259 171.787 189.487C171.356 189.702 170.9 189.873 170.419 190C169.938 190.127 169.463 190.19 168.994 190.19ZM179.462 190.19C178.575 190.19 177.777 189.968 177.068 189.525C176.371 189.069 175.814 188.455 175.396 187.682C174.991 186.897 174.788 185.997 174.788 184.984C174.788 183.983 174.991 183.09 175.396 182.305C175.801 181.52 176.352 180.905 177.049 180.462C177.758 180.006 178.556 179.778 179.443 179.778C179.924 179.778 180.387 179.854 180.83 180.006C181.286 180.158 181.691 180.367 182.046 180.633C182.401 180.886 182.679 181.171 182.882 181.488C183.097 181.805 183.218 182.134 183.243 182.476L182.616 182.552V175.94H184.953V190H182.692L182.635 187.644L183.091 187.682C183.078 187.999 182.964 188.303 182.749 188.594C182.546 188.885 182.28 189.151 181.951 189.392C181.622 189.633 181.235 189.829 180.792 189.981C180.361 190.12 179.918 190.19 179.462 190.19ZM179.918 188.214C180.463 188.214 180.944 188.075 181.362 187.796C181.78 187.517 182.103 187.137 182.331 186.656C182.572 186.175 182.692 185.617 182.692 184.984C182.692 184.363 182.572 183.812 182.331 183.331C182.103 182.837 181.78 182.457 181.362 182.191C180.944 181.912 180.463 181.773 179.918 181.773C179.373 181.773 178.892 181.912 178.474 182.191C178.056 182.457 177.727 182.837 177.486 183.331C177.258 183.812 177.144 184.363 177.144 184.984C177.144 185.617 177.258 186.175 177.486 186.656C177.727 187.137 178.056 187.517 178.474 187.796C178.892 188.075 179.373 188.214 179.918 188.214Z" fill="#4B4B4B"/>
<defs>
<linearGradient id="paint0_linear_749_1189" x1="88.875" y1="104" x2="203.894" y2="112.579" gradientUnits="userSpaceOnUse">
<stop stop-color="#4C9536"/>
<stop offset="1" stop-color="#10B1D1"/>
</linearGradient>
</defs>
</svg>
