<svg width="252" height="252" viewBox="0 0 252 252" fill="none" xmlns="http://www.w3.org/2000/svg">
<circle cx="126" cy="126" r="126" fill="#F7F9FB"/>
<circle cx="133.5" cy="129.5" r="110.5" fill="#EAF3FA"/>
<path d="M68.15 136.9C64.2 136.9 60.825 136.225 58.025 134.875C55.225 133.475 53.05 131.6 51.5 129.25C49.95 126.85 49.075 124.15 48.875 121.15H59.825C60.125 122.85 61.025 124.325 62.525 125.575C64.075 126.775 65.95 127.375 68.15 127.375C69.75 127.375 71.15 126.975 72.35 126.175C73.6 125.325 74.55 124.2 75.2 122.8C75.9 121.35 76.25 119.75 76.25 118C76.25 116.15 75.9 114.575 75.2 113.275C74.5 111.925 73.55 110.925 72.35 110.275C71.15 109.575 69.775 109.225 68.225 109.225C66.375 109.225 64.75 109.7 63.35 110.65C61.95 111.55 60.95 112.65 60.35 113.95H49.475L53.825 83.5H83.825V93.325H62.15L60.2 103.675C61.25 102.625 62.65 101.775 64.4 101.125C66.2 100.475 68.175 100.15 70.325 100.15C73.225 100.15 75.725 100.65 77.825 101.65C79.925 102.6 81.675 103.925 83.075 105.625C84.475 107.325 85.5 109.225 86.15 111.325C86.8 113.425 87.125 115.6 87.125 117.85C87.125 120.7 86.65 123.3 85.7 125.65C84.75 127.95 83.425 129.95 81.725 131.65C80.025 133.3 78 134.6 75.65 135.55C73.35 136.45 70.85 136.9 68.15 136.9ZM117.5 136.9C112.65 136.9 108.5 135.75 105.05 133.45C101.6 131.15 98.925 127.975 97.025 123.925C95.175 119.825 94.25 115.1 94.25 109.75C94.25 104.4 95.175 99.7 97.025 95.65C98.925 91.55 101.6 88.35 105.05 86.05C108.5 83.75 112.65 82.6 117.5 82.6C122.35 82.6 126.5 83.75 129.95 86.05C133.4 88.35 136.05 91.55 137.9 95.65C139.8 99.7 140.75 104.4 140.75 109.75C140.75 115.1 139.8 119.825 137.9 123.925C136.05 127.975 133.4 131.15 129.95 133.45C126.5 135.75 122.35 136.9 117.5 136.9ZM117.5 126.775C119.85 126.775 121.9 126.075 123.65 124.675C125.45 123.275 126.825 121.325 127.775 118.825C128.775 116.275 129.275 113.25 129.275 109.75C129.275 106.25 128.775 103.25 127.775 100.75C126.825 98.2 125.45 96.25 123.65 94.9C121.9 93.5 119.85 92.8 117.5 92.8C115.15 92.8 113.075 93.5 111.275 94.9C109.525 96.25 108.15 98.2 107.15 100.75C106.2 103.25 105.725 106.25 105.725 109.75C105.725 113.25 106.2 116.275 107.15 118.825C108.15 121.325 109.525 123.275 111.275 124.675C113.075 126.075 115.15 126.775 117.5 126.775ZM170.747 136.9C165.897 136.9 161.747 135.75 158.297 133.45C154.847 131.15 152.172 127.975 150.272 123.925C148.422 119.825 147.497 115.1 147.497 109.75C147.497 104.4 148.422 99.7 150.272 95.65C152.172 91.55 154.847 88.35 158.297 86.05C161.747 83.75 165.897 82.6 170.747 82.6C175.597 82.6 179.747 83.75 183.197 86.05C186.647 88.35 189.297 91.55 191.147 95.65C193.047 99.7 193.997 104.4 193.997 109.75C193.997 115.1 193.047 119.825 191.147 123.925C189.297 127.975 186.647 131.15 183.197 133.45C179.747 135.75 175.597 136.9 170.747 136.9ZM170.747 126.775C173.097 126.775 175.147 126.075 176.897 124.675C178.697 123.275 180.072 121.325 181.022 118.825C182.022 116.275 182.522 113.25 182.522 109.75C182.522 106.25 182.022 103.25 181.022 100.75C180.072 98.2 178.697 96.25 176.897 94.9C175.147 93.5 173.097 92.8 170.747 92.8C168.397 92.8 166.322 93.5 164.522 94.9C162.772 96.25 161.397 98.2 160.397 100.75C159.447 103.25 158.972 106.25 158.972 109.75C158.972 113.25 159.447 116.275 160.397 118.825C161.397 121.325 162.772 123.275 164.522 124.675C166.322 126.075 168.397 126.775 170.747 126.775ZM210.074 132.81V107.4H217.004V132.81H210.074ZM199.844 123.515V116.64H227.179V123.515H199.844Z" fill="url(#paint0_linear_749_1195)"/>
<path d="M63.4166 166.19C62.6439 166.19 61.9346 166.095 61.2886 165.905C60.6426 165.702 60.0599 165.405 59.5406 165.012C59.0213 164.619 58.5589 164.144 58.1536 163.587L59.7686 161.763C60.3893 162.624 60.9973 163.22 61.5926 163.549C62.1879 163.878 62.8593 164.043 63.6066 164.043C64.0373 164.043 64.4299 163.98 64.7846 163.853C65.1393 163.714 65.4179 163.53 65.6206 163.302C65.8233 163.061 65.9246 162.789 65.9246 162.485C65.9246 162.27 65.8803 162.073 65.7916 161.896C65.7156 161.706 65.5953 161.541 65.4306 161.402C65.2659 161.25 65.0633 161.111 64.8226 160.984C64.5819 160.857 64.3096 160.75 64.0056 160.661C63.7016 160.572 63.3659 160.49 62.9986 160.414C62.3019 160.275 61.6939 160.091 61.1746 159.863C60.6553 159.622 60.2183 159.331 59.8636 158.989C59.5089 158.634 59.2493 158.242 59.0846 157.811C58.9199 157.368 58.8376 156.867 58.8376 156.31C58.8376 155.753 58.9579 155.24 59.1986 154.771C59.4519 154.302 59.7939 153.897 60.2246 153.555C60.6553 153.213 61.1556 152.947 61.7256 152.757C62.2956 152.567 62.9099 152.472 63.5686 152.472C64.3159 152.472 64.9809 152.561 65.5636 152.738C66.1589 152.915 66.6783 153.181 67.1216 153.536C67.5776 153.878 67.9513 154.296 68.2426 154.79L66.6086 156.405C66.3553 156.012 66.0703 155.689 65.7536 155.436C65.4369 155.17 65.0949 154.974 64.7276 154.847C64.3603 154.708 63.9739 154.638 63.5686 154.638C63.1126 154.638 62.7136 154.701 62.3716 154.828C62.0423 154.955 61.7826 155.138 61.5926 155.379C61.4026 155.607 61.3076 155.886 61.3076 156.215C61.3076 156.468 61.3646 156.696 61.4786 156.899C61.5926 157.089 61.7509 157.26 61.9536 157.412C62.1689 157.564 62.4413 157.697 62.7706 157.811C63.0999 157.925 63.4736 158.026 63.8916 158.115C64.5883 158.254 65.2153 158.444 65.7726 158.685C66.3299 158.913 66.8049 159.192 67.1976 159.521C67.5903 159.838 67.8879 160.205 68.0906 160.623C68.2933 161.028 68.3946 161.484 68.3946 161.991C68.3946 162.865 68.1856 163.619 67.7676 164.252C67.3623 164.873 66.7859 165.354 66.0386 165.696C65.2913 166.025 64.4173 166.19 63.4166 166.19ZM75.3857 166.19C74.3344 166.19 73.4034 165.968 72.5927 165.525C71.7947 165.082 71.1677 164.48 70.7117 163.72C70.2684 162.947 70.0467 162.067 70.0467 161.079C70.0467 160.294 70.1734 159.578 70.4267 158.932C70.68 158.286 71.0284 157.729 71.4717 157.26C71.9277 156.779 72.466 156.411 73.0867 156.158C73.72 155.892 74.4104 155.759 75.1577 155.759C75.8164 155.759 76.4307 155.886 77.0007 156.139C77.5707 156.392 78.0647 156.741 78.4827 157.184C78.9007 157.615 79.2174 158.134 79.4327 158.742C79.6607 159.337 79.7684 159.99 79.7557 160.699L79.7367 161.516H71.6237L71.1867 159.92H77.7797L77.4757 160.243V159.825C77.4377 159.432 77.311 159.09 77.0957 158.799C76.8804 158.495 76.6017 158.261 76.2597 158.096C75.9304 157.919 75.563 157.83 75.1577 157.83C74.537 157.83 74.0114 157.95 73.5807 158.191C73.1627 158.432 72.846 158.78 72.6307 159.236C72.4154 159.679 72.3077 160.237 72.3077 160.908C72.3077 161.554 72.4407 162.118 72.7067 162.599C72.9854 163.08 73.3717 163.454 73.8657 163.72C74.3724 163.973 74.9614 164.1 75.6327 164.1C76.1014 164.1 76.532 164.024 76.9247 163.872C77.3174 163.72 77.7417 163.448 78.1977 163.055L79.3567 164.67C79.0147 164.987 78.622 165.259 78.1787 165.487C77.748 165.702 77.292 165.873 76.8107 166C76.3294 166.127 75.8544 166.19 75.3857 166.19ZM81.8255 166V155.987H84.1055L84.1435 158.039L83.7065 158.267C83.8332 157.811 84.0802 157.399 84.4475 157.032C84.8149 156.652 85.2519 156.348 85.7585 156.12C86.2652 155.892 86.7845 155.778 87.3165 155.778C88.0765 155.778 88.7099 155.93 89.2165 156.234C89.7359 156.538 90.1222 156.994 90.3755 157.602C90.6415 158.21 90.7745 158.97 90.7745 159.882V166H88.4375V160.053C88.4375 159.546 88.3679 159.128 88.2285 158.799C88.0892 158.457 87.8739 158.21 87.5825 158.058C87.2912 157.893 86.9365 157.817 86.5185 157.83C86.1765 157.83 85.8599 157.887 85.5685 158.001C85.2899 158.102 85.0429 158.254 84.8275 158.457C84.6249 158.647 84.4602 158.869 84.3335 159.122C84.2195 159.375 84.1625 159.654 84.1625 159.958V166H83.0035C82.7755 166 82.5602 166 82.3575 166C82.1675 166 81.9902 166 81.8255 166ZM93.6696 166V155.987H96.0066V166H93.6696ZM94.8096 153.859C94.341 153.859 93.9736 153.745 93.7076 153.517C93.4543 153.276 93.3276 152.941 93.3276 152.51C93.3276 152.105 93.4606 151.775 93.7266 151.522C93.9926 151.269 94.3536 151.142 94.8096 151.142C95.291 151.142 95.6583 151.262 95.9116 151.503C96.1776 151.731 96.3106 152.067 96.3106 152.51C96.3106 152.903 96.1776 153.226 95.9116 153.479C95.6456 153.732 95.2783 153.859 94.8096 153.859ZM103.549 166.19C102.548 166.19 101.655 165.968 100.87 165.525C100.085 165.069 99.4641 164.448 99.0081 163.663C98.5521 162.878 98.3241 161.985 98.3241 160.984C98.3241 159.983 98.5521 159.09 99.0081 158.305C99.4641 157.52 100.085 156.905 100.87 156.462C101.655 156.006 102.548 155.778 103.549 155.778C104.537 155.778 105.424 156.006 106.209 156.462C106.994 156.905 107.609 157.52 108.052 158.305C108.508 159.09 108.736 159.983 108.736 160.984C108.736 161.985 108.508 162.878 108.052 163.663C107.609 164.448 106.994 165.069 106.209 165.525C105.424 165.968 104.537 166.19 103.549 166.19ZM103.549 164.119C104.094 164.119 104.575 163.98 104.993 163.701C105.424 163.422 105.759 163.049 106 162.58C106.253 162.111 106.374 161.579 106.361 160.984C106.374 160.376 106.253 159.838 106 159.369C105.759 158.9 105.424 158.533 104.993 158.267C104.575 157.988 104.094 157.849 103.549 157.849C103.004 157.849 102.51 157.988 102.067 158.267C101.636 158.533 101.301 158.907 101.06 159.388C100.819 159.857 100.699 160.389 100.699 160.984C100.699 161.579 100.819 162.111 101.06 162.58C101.301 163.049 101.636 163.422 102.067 163.701C102.51 163.98 103.004 164.119 103.549 164.119ZM110.826 166V155.987H113.125L113.163 159.179L112.84 158.457C112.98 157.95 113.22 157.494 113.562 157.089C113.904 156.684 114.297 156.367 114.74 156.139C115.196 155.898 115.671 155.778 116.165 155.778C116.381 155.778 116.583 155.797 116.773 155.835C116.976 155.873 117.141 155.917 117.267 155.968L116.64 158.533C116.501 158.457 116.33 158.394 116.127 158.343C115.925 158.292 115.722 158.267 115.519 158.267C115.203 158.267 114.899 158.33 114.607 158.457C114.329 158.571 114.082 158.736 113.866 158.951C113.651 159.166 113.48 159.42 113.353 159.711C113.239 159.99 113.182 160.306 113.182 160.661V166H110.826ZM122.168 166.19C121.281 166.19 120.483 166.044 119.774 165.753C119.077 165.449 118.507 165.018 118.064 164.461L119.584 163.15C119.964 163.581 120.388 163.891 120.857 164.081C121.325 164.271 121.819 164.366 122.339 164.366C122.554 164.366 122.744 164.341 122.909 164.29C123.086 164.239 123.238 164.163 123.365 164.062C123.491 163.961 123.586 163.847 123.65 163.72C123.726 163.581 123.764 163.429 123.764 163.264C123.764 162.96 123.65 162.719 123.422 162.542C123.295 162.453 123.092 162.358 122.814 162.257C122.548 162.156 122.199 162.054 121.769 161.953C121.085 161.776 120.515 161.573 120.059 161.345C119.603 161.104 119.248 160.838 118.995 160.547C118.779 160.306 118.615 160.034 118.501 159.73C118.399 159.426 118.349 159.097 118.349 158.742C118.349 158.299 118.444 157.9 118.634 157.545C118.836 157.178 119.109 156.861 119.451 156.595C119.793 156.329 120.192 156.126 120.648 155.987C121.104 155.848 121.579 155.778 122.073 155.778C122.579 155.778 123.067 155.841 123.536 155.968C124.017 156.095 124.46 156.278 124.866 156.519C125.284 156.747 125.638 157.026 125.93 157.355L124.638 158.78C124.397 158.552 124.131 158.349 123.84 158.172C123.561 157.995 123.276 157.855 122.985 157.754C122.693 157.64 122.421 157.583 122.168 157.583C121.927 157.583 121.712 157.608 121.522 157.659C121.332 157.697 121.173 157.76 121.047 157.849C120.92 157.938 120.819 158.052 120.743 158.191C120.679 158.318 120.648 158.47 120.648 158.647C120.66 158.799 120.698 158.945 120.762 159.084C120.838 159.211 120.939 159.318 121.066 159.407C121.205 159.496 121.414 159.597 121.693 159.711C121.971 159.825 122.332 159.933 122.776 160.034C123.396 160.199 123.916 160.382 124.334 160.585C124.752 160.788 125.081 161.022 125.322 161.288C125.562 161.516 125.733 161.782 125.835 162.086C125.936 162.39 125.987 162.726 125.987 163.093C125.987 163.688 125.816 164.22 125.474 164.689C125.144 165.158 124.688 165.525 124.106 165.791C123.536 166.057 122.89 166.19 122.168 166.19ZM134.048 166V152.7H139.824C140.622 152.7 141.351 152.89 142.009 153.27C142.668 153.637 143.187 154.144 143.567 154.79C143.96 155.423 144.156 156.139 144.156 156.937C144.156 157.697 143.96 158.4 143.567 159.046C143.187 159.679 142.668 160.186 142.009 160.566C141.363 160.933 140.635 161.117 139.824 161.117H136.461V166H134.048ZM141.762 166L138.38 159.996L140.926 159.521L144.688 166.019L141.762 166ZM136.461 158.97H139.843C140.211 158.97 140.527 158.888 140.793 158.723C141.072 158.546 141.287 158.305 141.439 158.001C141.591 157.697 141.667 157.361 141.667 156.994C141.667 156.576 141.572 156.215 141.382 155.911C141.192 155.607 140.926 155.366 140.584 155.189C140.242 155.012 139.85 154.923 139.406 154.923H136.461V158.97ZM151.2 166.19C150.149 166.19 149.218 165.968 148.407 165.525C147.609 165.082 146.982 164.48 146.526 163.72C146.083 162.947 145.861 162.067 145.861 161.079C145.861 160.294 145.988 159.578 146.241 158.932C146.494 158.286 146.843 157.729 147.286 157.26C147.742 156.779 148.28 156.411 148.901 156.158C149.534 155.892 150.225 155.759 150.972 155.759C151.631 155.759 152.245 155.886 152.815 156.139C153.385 156.392 153.879 156.741 154.297 157.184C154.715 157.615 155.032 158.134 155.247 158.742C155.475 159.337 155.583 159.99 155.57 160.699L155.551 161.516H147.438L147.001 159.92H153.594L153.29 160.243V159.825C153.252 159.432 153.125 159.09 152.91 158.799C152.695 158.495 152.416 158.261 152.074 158.096C151.745 157.919 151.377 157.83 150.972 157.83C150.351 157.83 149.826 157.95 149.395 158.191C148.977 158.432 148.66 158.78 148.445 159.236C148.23 159.679 148.122 160.237 148.122 160.908C148.122 161.554 148.255 162.118 148.521 162.599C148.8 163.08 149.186 163.454 149.68 163.72C150.187 163.973 150.776 164.1 151.447 164.1C151.916 164.1 152.346 164.024 152.739 163.872C153.132 163.72 153.556 163.448 154.012 163.055L155.171 164.67C154.829 164.987 154.436 165.259 153.993 165.487C153.562 165.702 153.106 165.873 152.625 166C152.144 166.127 151.669 166.19 151.2 166.19ZM161.421 166.19C160.598 166.19 159.85 165.962 159.179 165.506C158.508 165.05 157.969 164.429 157.564 163.644C157.159 162.859 156.956 161.966 156.956 160.965C156.956 159.964 157.159 159.071 157.564 158.286C157.969 157.501 158.52 156.886 159.217 156.443C159.914 156 160.699 155.778 161.573 155.778C162.08 155.778 162.542 155.854 162.96 156.006C163.378 156.145 163.745 156.348 164.062 156.614C164.379 156.88 164.638 157.184 164.841 157.526C165.056 157.868 165.202 158.235 165.278 158.628L164.765 158.495V155.987H167.121V166H164.746V163.606L165.297 163.511C165.208 163.853 165.044 164.189 164.803 164.518C164.575 164.835 164.284 165.12 163.929 165.373C163.587 165.614 163.201 165.81 162.77 165.962C162.352 166.114 161.902 166.19 161.421 166.19ZM162.067 164.119C162.612 164.119 163.093 163.986 163.511 163.72C163.929 163.454 164.252 163.087 164.48 162.618C164.721 162.137 164.841 161.586 164.841 160.965C164.841 160.357 164.721 159.819 164.48 159.35C164.252 158.881 163.929 158.514 163.511 158.248C163.093 157.982 162.612 157.849 162.067 157.849C161.522 157.849 161.041 157.982 160.623 158.248C160.218 158.514 159.901 158.881 159.673 159.35C159.445 159.819 159.331 160.357 159.331 160.965C159.331 161.586 159.445 162.137 159.673 162.618C159.901 163.087 160.218 163.454 160.623 163.72C161.041 163.986 161.522 164.119 162.067 164.119ZM174.124 166.19C173.187 166.19 172.345 165.962 171.597 165.506C170.85 165.05 170.261 164.429 169.83 163.644C169.4 162.859 169.184 161.972 169.184 160.984C169.184 159.996 169.4 159.109 169.83 158.324C170.261 157.539 170.85 156.918 171.597 156.462C172.345 156.006 173.187 155.778 174.124 155.778C175.024 155.778 175.841 155.949 176.575 156.291C177.31 156.633 177.88 157.108 178.285 157.716L176.993 159.274C176.803 159.008 176.563 158.767 176.271 158.552C175.98 158.337 175.67 158.166 175.34 158.039C175.011 157.912 174.682 157.849 174.352 157.849C173.795 157.849 173.295 157.988 172.851 158.267C172.421 158.533 172.079 158.907 171.825 159.388C171.572 159.857 171.445 160.389 171.445 160.984C171.445 161.579 171.572 162.111 171.825 162.58C172.091 163.049 172.446 163.422 172.889 163.701C173.333 163.98 173.827 164.119 174.371 164.119C174.701 164.119 175.017 164.068 175.321 163.967C175.638 163.853 175.936 163.695 176.214 163.492C176.493 163.289 176.753 163.036 176.993 162.732L178.285 164.309C177.855 164.866 177.259 165.322 176.499 165.677C175.752 166.019 174.96 166.19 174.124 166.19ZM180.073 166V151.94H182.391V158.039L181.954 158.267C182.08 157.811 182.327 157.399 182.695 157.032C183.062 156.652 183.499 156.348 184.006 156.12C184.512 155.892 185.032 155.778 185.564 155.778C186.324 155.778 186.957 155.93 187.464 156.234C187.983 156.538 188.369 156.994 188.623 157.602C188.889 158.21 189.022 158.97 189.022 159.882V166H186.685V160.053C186.685 159.546 186.615 159.128 186.476 158.799C186.336 158.457 186.121 158.21 185.83 158.058C185.538 157.893 185.184 157.817 184.766 157.83C184.424 157.83 184.107 157.887 183.816 158.001C183.537 158.102 183.29 158.254 183.075 158.457C182.872 158.647 182.707 158.869 182.581 159.122C182.467 159.375 182.41 159.654 182.41 159.958V166H181.251C181.023 166 180.807 166 180.605 166C180.415 166 180.237 166 180.073 166ZM196.344 166.19C195.292 166.19 194.361 165.968 193.551 165.525C192.753 165.082 192.126 164.48 191.67 163.72C191.226 162.947 191.005 162.067 191.005 161.079C191.005 160.294 191.131 159.578 191.385 158.932C191.638 158.286 191.986 157.729 192.43 157.26C192.886 156.779 193.424 156.411 194.045 156.158C194.678 155.892 195.368 155.759 196.116 155.759C196.774 155.759 197.389 155.886 197.959 156.139C198.529 156.392 199.023 156.741 199.441 157.184C199.859 157.615 200.175 158.134 200.391 158.742C200.619 159.337 200.726 159.99 200.714 160.699L200.695 161.516H192.582L192.145 159.92H198.738L198.434 160.243V159.825C198.396 159.432 198.269 159.09 198.054 158.799C197.838 158.495 197.56 158.261 197.218 158.096C196.888 157.919 196.521 157.83 196.116 157.83C195.495 157.83 194.969 157.95 194.539 158.191C194.121 158.432 193.804 158.78 193.589 159.236C193.373 159.679 193.266 160.237 193.266 160.908C193.266 161.554 193.399 162.118 193.665 162.599C193.943 163.08 194.33 163.454 194.824 163.72C195.33 163.973 195.919 164.1 196.591 164.1C197.059 164.1 197.49 164.024 197.883 163.872C198.275 163.72 198.7 163.448 199.156 163.055L200.315 164.67C199.973 164.987 199.58 165.259 199.137 165.487C198.706 165.702 198.25 165.873 197.769 166C197.287 166.127 196.812 166.19 196.344 166.19ZM206.812 166.19C205.925 166.19 205.127 165.968 204.418 165.525C203.721 165.069 203.164 164.455 202.746 163.682C202.34 162.897 202.138 161.997 202.138 160.984C202.138 159.983 202.34 159.09 202.746 158.305C203.151 157.52 203.702 156.905 204.399 156.462C205.108 156.006 205.906 155.778 206.793 155.778C207.274 155.778 207.736 155.854 208.18 156.006C208.636 156.158 209.041 156.367 209.396 156.633C209.75 156.886 210.029 157.171 210.232 157.488C210.447 157.805 210.567 158.134 210.593 158.476L209.966 158.552V151.94H212.303V166H210.042L209.985 163.644L210.441 163.682C210.428 163.999 210.314 164.303 210.099 164.594C209.896 164.885 209.63 165.151 209.301 165.392C208.971 165.633 208.585 165.829 208.142 165.981C207.711 166.12 207.268 166.19 206.812 166.19ZM207.268 164.214C207.812 164.214 208.294 164.075 208.712 163.796C209.13 163.517 209.453 163.137 209.681 162.656C209.921 162.175 210.042 161.617 210.042 160.984C210.042 160.363 209.921 159.812 209.681 159.331C209.453 158.837 209.13 158.457 208.712 158.191C208.294 157.912 207.812 157.773 207.268 157.773C206.723 157.773 206.242 157.912 205.824 158.191C205.406 158.457 205.076 158.837 204.836 159.331C204.608 159.812 204.494 160.363 204.494 160.984C204.494 161.617 204.608 162.175 204.836 162.656C205.076 163.137 205.406 163.517 205.824 163.796C206.242 164.075 206.723 164.214 207.268 164.214Z" fill="#4B4B4B"/>
<defs>
<linearGradient id="paint0_linear_749_1195" x1="60.6071" y1="110" x2="220.614" y2="126.69" gradientUnits="userSpaceOnUse">
<stop stop-color="#4C9536"/>
<stop offset="1" stop-color="#10B1D1"/>
</linearGradient>
</defs>
</svg>
