<svg width="252" height="252" viewBox="0 0 252 252" fill="none" xmlns="http://www.w3.org/2000/svg">
<circle cx="126" cy="126" r="126" fill="#F7F9FB"/>
<circle cx="133.5" cy="129.5" r="110.5" fill="#EAF3FA"/>
<path d="M82.525 136V127.675C85.575 125.175 88.575 122.7 91.525 120.25C94.525 117.8 97.2 115.375 99.55 112.975C101.95 110.525 103.85 108.15 105.25 105.85C106.65 103.5 107.35 101.25 107.35 99.1C107.35 97.85 107.1 96.7 106.6 95.65C106.15 94.55 105.425 93.7 104.425 93.1C103.475 92.45 102.2 92.125 100.6 92.125C99.05 92.125 97.725 92.475 96.625 93.175C95.525 93.875 94.7 94.85 94.15 96.1C93.6 97.3 93.325 98.7 93.325 100.3H82.45C82.6 96.3 83.5 92.975 85.15 90.325C86.8 87.675 89 85.725 91.75 84.475C94.55 83.225 97.625 82.6 100.975 82.6C104.875 82.6 108.125 83.325 110.725 84.775C113.325 86.175 115.275 88.075 116.575 90.475C117.925 92.825 118.6 95.45 118.6 98.35C118.6 100.65 118.2 102.875 117.4 105.025C116.6 107.125 115.5 109.175 114.1 111.175C112.7 113.125 111.1 115.025 109.3 116.875C107.55 118.675 105.7 120.425 103.75 122.125C101.8 123.775 99.875 125.35 97.975 126.85H119.65V136H82.525ZM146.509 136.9C142.559 136.9 139.184 136.225 136.384 134.875C133.584 133.475 131.409 131.6 129.859 129.25C128.309 126.85 127.434 124.15 127.234 121.15H138.184C138.484 122.85 139.384 124.325 140.884 125.575C142.434 126.775 144.309 127.375 146.509 127.375C148.109 127.375 149.509 126.975 150.709 126.175C151.959 125.325 152.909 124.2 153.559 122.8C154.259 121.35 154.609 119.75 154.609 118C154.609 116.15 154.259 114.575 153.559 113.275C152.859 111.925 151.909 110.925 150.709 110.275C149.509 109.575 148.134 109.225 146.584 109.225C144.734 109.225 143.109 109.7 141.709 110.65C140.309 111.55 139.309 112.65 138.709 113.95H127.834L132.184 83.5H162.184V93.325H140.509L138.559 103.675C139.609 102.625 141.009 101.775 142.759 101.125C144.559 100.475 146.534 100.15 148.684 100.15C151.584 100.15 154.084 100.65 156.184 101.65C158.284 102.6 160.034 103.925 161.434 105.625C162.834 107.325 163.859 109.225 164.509 111.325C165.159 113.425 165.484 115.6 165.484 117.85C165.484 120.7 165.009 123.3 164.059 125.65C163.109 127.95 161.784 129.95 160.084 131.65C158.384 133.3 156.359 134.6 154.009 135.55C151.709 136.45 149.209 136.9 146.509 136.9ZM181.939 132.81V107.4H188.869V132.81H181.939ZM171.709 123.515V116.64H199.044V123.515H171.709Z" fill="url(#paint0_linear_749_1200)"/>
<path d="M87.1651 166.19C86.2151 166.19 85.3348 166.019 84.5241 165.677C83.7134 165.335 83.0041 164.86 82.3961 164.252C81.8008 163.631 81.3384 162.903 81.0091 162.067C80.6798 161.231 80.5151 160.319 80.5151 159.331C80.5151 158.343 80.6798 157.431 81.0091 156.595C81.3384 155.759 81.8008 155.037 82.3961 154.429C83.0041 153.808 83.7134 153.327 84.5241 152.985C85.3348 152.643 86.2151 152.472 87.1651 152.472C88.1278 152.472 89.0144 152.643 89.8251 152.985C90.6358 153.327 91.3388 153.808 91.9341 154.429C92.5294 155.05 92.9918 155.778 93.3211 156.614C93.6504 157.437 93.8151 158.343 93.8151 159.331C93.8151 160.306 93.6504 161.212 93.3211 162.048C92.9918 162.884 92.5294 163.612 91.9341 164.233C91.3388 164.854 90.6358 165.335 89.8251 165.677C89.0144 166.019 88.1278 166.19 87.1651 166.19ZM87.1651 163.834C87.7731 163.834 88.3241 163.726 88.8181 163.511C89.3248 163.283 89.7618 162.966 90.1291 162.561C90.4964 162.143 90.7814 161.662 90.9841 161.117C91.1994 160.572 91.3071 159.977 91.3071 159.331C91.3071 158.685 91.1994 158.09 90.9841 157.545C90.7814 157 90.4964 156.525 90.1291 156.12C89.7618 155.702 89.3248 155.385 88.8181 155.17C88.3241 154.942 87.7731 154.828 87.1651 154.828C86.5698 154.828 86.0188 154.942 85.5121 155.17C85.0054 155.385 84.5684 155.696 84.2011 156.101C83.8338 156.506 83.5488 156.981 83.3461 157.526C83.1434 158.071 83.0421 158.672 83.0421 159.331C83.0421 159.977 83.1434 160.579 83.3461 161.136C83.5488 161.681 83.8338 162.156 84.2011 162.561C84.5684 162.966 85.0054 163.283 85.5121 163.511C86.0188 163.726 86.5698 163.834 87.1651 163.834ZM99.5525 166.19C98.8305 166.19 98.2035 166.032 97.6715 165.715C97.1395 165.386 96.7342 164.923 96.4555 164.328C96.1769 163.72 96.0375 162.998 96.0375 162.162V155.987H98.3745V161.668C98.3745 162.2 98.4569 162.656 98.6215 163.036C98.7862 163.403 99.0269 163.688 99.3435 163.891C99.6602 164.094 100.04 164.195 100.484 164.195C100.813 164.195 101.111 164.144 101.377 164.043C101.655 163.929 101.896 163.777 102.099 163.587C102.301 163.384 102.46 163.15 102.574 162.884C102.688 162.605 102.745 162.308 102.745 161.991V155.987H105.082V166H102.802L102.764 163.91L103.182 163.682C103.03 164.163 102.77 164.594 102.403 164.974C102.048 165.341 101.624 165.639 101.13 165.867C100.636 166.082 100.11 166.19 99.5525 166.19ZM108.904 166V153.441H111.241V166H108.904ZM106.928 158.153V155.987H113.426V158.153H106.928ZM115.471 166V155.987H117.808V166H115.471ZM116.611 153.859C116.143 153.859 115.775 153.745 115.509 153.517C115.256 153.276 115.129 152.941 115.129 152.51C115.129 152.105 115.262 151.775 115.528 151.522C115.794 151.269 116.155 151.142 116.611 151.142C117.093 151.142 117.46 151.262 117.713 151.503C117.979 151.731 118.112 152.067 118.112 152.51C118.112 152.903 117.979 153.226 117.713 153.479C117.447 153.732 117.08 153.859 116.611 153.859ZM120.772 166V155.987H123.052L123.09 158.039L122.653 158.267C122.779 157.811 123.026 157.399 123.394 157.032C123.761 156.652 124.198 156.348 124.705 156.12C125.211 155.892 125.731 155.778 126.263 155.778C127.023 155.778 127.656 155.93 128.163 156.234C128.682 156.538 129.068 156.994 129.322 157.602C129.588 158.21 129.721 158.97 129.721 159.882V166H127.384V160.053C127.384 159.546 127.314 159.128 127.175 158.799C127.035 158.457 126.82 158.21 126.529 158.058C126.237 157.893 125.883 157.817 125.465 157.83C125.123 157.83 124.806 157.887 124.515 158.001C124.236 158.102 123.989 158.254 123.774 158.457C123.571 158.647 123.406 158.869 123.28 159.122C123.166 159.375 123.109 159.654 123.109 159.958V166H121.95C121.722 166 121.506 166 121.304 166C121.114 166 120.936 166 120.772 166ZM136.853 170.37C136.106 170.37 135.358 170.256 134.611 170.028C133.876 169.8 133.281 169.502 132.825 169.135L133.661 167.406C133.927 167.596 134.225 167.761 134.554 167.9C134.883 168.039 135.232 168.147 135.599 168.223C135.979 168.299 136.353 168.337 136.72 168.337C137.391 168.337 137.949 168.229 138.392 168.014C138.848 167.811 139.19 167.495 139.418 167.064C139.646 166.646 139.76 166.12 139.76 165.487V163.644L140.102 163.777C140.026 164.17 139.817 164.543 139.475 164.898C139.133 165.253 138.702 165.544 138.183 165.772C137.664 165.987 137.132 166.095 136.587 166.095C135.637 166.095 134.795 165.873 134.06 165.43C133.338 164.987 132.762 164.385 132.331 163.625C131.913 162.852 131.704 161.966 131.704 160.965C131.704 159.964 131.913 159.078 132.331 158.305C132.749 157.52 133.319 156.905 134.041 156.462C134.776 156.006 135.599 155.778 136.511 155.778C136.891 155.778 137.258 155.822 137.613 155.911C137.968 156 138.291 156.126 138.582 156.291C138.886 156.456 139.158 156.639 139.399 156.842C139.64 157.045 139.836 157.26 139.988 157.488C140.14 157.716 140.235 157.938 140.273 158.153L139.779 158.305L139.817 155.987H142.116V165.316C142.116 166.127 141.996 166.842 141.755 167.463C141.514 168.084 141.166 168.609 140.71 169.04C140.254 169.483 139.703 169.813 139.057 170.028C138.411 170.256 137.676 170.37 136.853 170.37ZM136.948 164.1C137.518 164.1 138.018 163.967 138.449 163.701C138.892 163.435 139.234 163.068 139.475 162.599C139.716 162.13 139.836 161.592 139.836 160.984C139.836 160.363 139.709 159.819 139.456 159.35C139.215 158.869 138.88 158.495 138.449 158.229C138.018 157.963 137.518 157.83 136.948 157.83C136.378 157.83 135.878 157.969 135.447 158.248C135.016 158.514 134.674 158.888 134.421 159.369C134.18 159.838 134.06 160.376 134.06 160.984C134.06 161.579 134.18 162.118 134.421 162.599C134.674 163.068 135.016 163.435 135.447 163.701C135.878 163.967 136.378 164.1 136.948 164.1ZM147.977 166.19C147.09 166.19 146.292 166.044 145.583 165.753C144.886 165.449 144.316 165.018 143.873 164.461L145.393 163.15C145.773 163.581 146.197 163.891 146.666 164.081C147.135 164.271 147.629 164.366 148.148 164.366C148.363 164.366 148.553 164.341 148.718 164.29C148.895 164.239 149.047 164.163 149.174 164.062C149.301 163.961 149.396 163.847 149.459 163.72C149.535 163.581 149.573 163.429 149.573 163.264C149.573 162.96 149.459 162.719 149.231 162.542C149.104 162.453 148.902 162.358 148.623 162.257C148.357 162.156 148.009 162.054 147.578 161.953C146.894 161.776 146.324 161.573 145.868 161.345C145.412 161.104 145.057 160.838 144.804 160.547C144.589 160.306 144.424 160.034 144.31 159.73C144.209 159.426 144.158 159.097 144.158 158.742C144.158 158.299 144.253 157.9 144.443 157.545C144.646 157.178 144.918 156.861 145.26 156.595C145.602 156.329 146.001 156.126 146.457 155.987C146.913 155.848 147.388 155.778 147.882 155.778C148.389 155.778 148.876 155.841 149.345 155.968C149.826 156.095 150.27 156.278 150.675 156.519C151.093 156.747 151.448 157.026 151.739 157.355L150.447 158.78C150.206 158.552 149.94 158.349 149.649 158.172C149.37 157.995 149.085 157.855 148.794 157.754C148.503 157.64 148.23 157.583 147.977 157.583C147.736 157.583 147.521 157.608 147.331 157.659C147.141 157.697 146.983 157.76 146.856 157.849C146.729 157.938 146.628 158.052 146.552 158.191C146.489 158.318 146.457 158.47 146.457 158.647C146.47 158.799 146.508 158.945 146.571 159.084C146.647 159.211 146.748 159.318 146.875 159.407C147.014 159.496 147.223 159.597 147.502 159.711C147.781 159.825 148.142 159.933 148.585 160.034C149.206 160.199 149.725 160.382 150.143 160.585C150.561 160.788 150.89 161.022 151.131 161.288C151.372 161.516 151.543 161.782 151.644 162.086C151.745 162.39 151.796 162.726 151.796 163.093C151.796 163.688 151.625 164.22 151.283 164.689C150.954 165.158 150.498 165.525 149.915 165.791C149.345 166.057 148.699 166.19 147.977 166.19ZM169.035 166L167.439 164.328L166.831 163.72L163.734 160.3C163.354 159.895 163.005 159.496 162.689 159.103C162.385 158.698 162.125 158.311 161.91 157.944C161.707 157.577 161.542 157.222 161.416 156.88C161.302 156.538 161.245 156.215 161.245 155.911C161.245 155.252 161.416 154.663 161.758 154.144C162.1 153.625 162.575 153.219 163.183 152.928C163.791 152.624 164.494 152.472 165.292 152.472C165.887 152.472 166.444 152.58 166.964 152.795C167.483 152.998 167.926 153.289 168.294 153.669C168.674 154.036 168.946 154.473 169.111 154.98L167.306 156.101C167.078 155.531 166.805 155.132 166.489 154.904C166.172 154.663 165.786 154.543 165.33 154.543C164.975 154.543 164.677 154.6 164.437 154.714C164.196 154.815 164.012 154.974 163.886 155.189C163.759 155.392 163.696 155.645 163.696 155.949C163.696 156.215 163.784 156.519 163.962 156.861C164.139 157.203 164.354 157.551 164.608 157.906C164.874 158.261 165.146 158.59 165.425 158.894C165.703 159.198 165.944 159.464 166.147 159.692L168.37 162.143L169.187 162.96L171.999 166H169.035ZM164.019 166.19C163.094 166.19 162.252 166 161.492 165.62C160.732 165.227 160.13 164.708 159.687 164.062C159.243 163.416 159.022 162.707 159.022 161.934C159.022 160.959 159.294 160.104 159.839 159.369C160.383 158.634 161.188 158.071 162.252 157.678L163.715 159.274C162.942 159.451 162.359 159.736 161.967 160.129C161.587 160.509 161.397 161.022 161.397 161.668C161.397 162.162 161.517 162.599 161.758 162.979C161.998 163.346 162.34 163.638 162.784 163.853C163.227 164.056 163.759 164.157 164.38 164.157C164.924 164.157 165.425 164.049 165.881 163.834C166.349 163.619 166.767 163.315 167.135 162.922C167.502 162.517 167.806 162.035 168.047 161.478C168.287 160.921 168.452 160.306 168.541 159.635H170.688C170.586 160.42 170.396 161.149 170.118 161.82C169.852 162.491 169.516 163.099 169.111 163.644C168.718 164.176 168.262 164.632 167.743 165.012C167.223 165.392 166.653 165.683 166.033 165.886C165.412 166.089 164.741 166.19 164.019 166.19ZM77.9296 190V176.7H86.6316V178.942H80.3616V187.758H86.7076V190H77.9296ZM79.0696 184.3V182.096H85.6626V184.3H79.0696ZM95.8656 190L93.0156 186.143L92.4836 185.421L88.3606 179.987H91.2486L94.0226 183.749L94.6116 184.547L98.6966 190H95.8656ZM88.3416 190L92.3126 184.68L93.6426 186.276L91.0966 190H88.3416ZM94.6116 185.326L93.3386 183.749L95.6376 179.987H98.3926L94.6116 185.326ZM104.09 190.19C103.152 190.19 102.31 189.962 101.563 189.506C100.815 189.05 100.226 188.429 99.7957 187.644C99.3651 186.859 99.1497 185.972 99.1497 184.984C99.1497 183.996 99.3651 183.109 99.7957 182.324C100.226 181.539 100.815 180.918 101.563 180.462C102.31 180.006 103.152 179.778 104.09 179.778C104.989 179.778 105.806 179.949 106.541 180.291C107.275 180.633 107.845 181.108 108.251 181.716L106.959 183.274C106.769 183.008 106.528 182.767 106.237 182.552C105.945 182.337 105.635 182.166 105.306 182.039C104.976 181.912 104.647 181.849 104.318 181.849C103.76 181.849 103.26 181.988 102.817 182.267C102.386 182.533 102.044 182.907 101.791 183.388C101.537 183.857 101.411 184.389 101.411 184.984C101.411 185.579 101.537 186.111 101.791 186.58C102.057 187.049 102.411 187.422 102.855 187.701C103.298 187.98 103.792 188.119 104.337 188.119C104.666 188.119 104.983 188.068 105.287 187.967C105.603 187.853 105.901 187.695 106.18 187.492C106.458 187.289 106.718 187.036 106.959 186.732L108.251 188.309C107.82 188.866 107.225 189.322 106.465 189.677C105.717 190.019 104.926 190.19 104.09 190.19ZM113.515 190.19C112.793 190.19 112.166 190.032 111.634 189.715C111.102 189.386 110.697 188.923 110.418 188.328C110.139 187.72 110 186.998 110 186.162V179.987H112.337V185.668C112.337 186.2 112.419 186.656 112.584 187.036C112.749 187.403 112.989 187.688 113.306 187.891C113.623 188.094 114.003 188.195 114.446 188.195C114.775 188.195 115.073 188.144 115.339 188.043C115.618 187.929 115.858 187.777 116.061 187.587C116.264 187.384 116.422 187.15 116.536 186.884C116.65 186.605 116.707 186.308 116.707 185.991V179.987H119.044V190H116.764L116.726 187.91L117.144 187.682C116.992 188.163 116.732 188.594 116.365 188.974C116.01 189.341 115.586 189.639 115.092 189.867C114.598 190.082 114.072 190.19 113.515 190.19ZM121.783 190V179.987H124.082L124.12 183.179L123.797 182.457C123.936 181.95 124.177 181.494 124.519 181.089C124.861 180.684 125.254 180.367 125.697 180.139C126.153 179.898 126.628 179.778 127.122 179.778C127.337 179.778 127.54 179.797 127.73 179.835C127.933 179.873 128.097 179.917 128.224 179.968L127.597 182.533C127.458 182.457 127.287 182.394 127.084 182.343C126.881 182.292 126.679 182.267 126.476 182.267C126.159 182.267 125.855 182.33 125.564 182.457C125.285 182.571 125.038 182.736 124.823 182.951C124.608 183.166 124.437 183.42 124.31 183.711C124.196 183.99 124.139 184.306 124.139 184.661V190H121.783ZM133.124 190.19C132.237 190.19 131.439 190.044 130.73 189.753C130.033 189.449 129.463 189.018 129.02 188.461L130.54 187.15C130.92 187.581 131.344 187.891 131.813 188.081C132.282 188.271 132.776 188.366 133.295 188.366C133.51 188.366 133.7 188.341 133.865 188.29C134.042 188.239 134.194 188.163 134.321 188.062C134.448 187.961 134.543 187.847 134.606 187.72C134.682 187.581 134.72 187.429 134.72 187.264C134.72 186.96 134.606 186.719 134.378 186.542C134.251 186.453 134.049 186.358 133.77 186.257C133.504 186.156 133.156 186.054 132.725 185.953C132.041 185.776 131.471 185.573 131.015 185.345C130.559 185.104 130.204 184.838 129.951 184.547C129.736 184.306 129.571 184.034 129.457 183.73C129.356 183.426 129.305 183.097 129.305 182.742C129.305 182.299 129.4 181.9 129.59 181.545C129.793 181.178 130.065 180.861 130.407 180.595C130.749 180.329 131.148 180.126 131.604 179.987C132.06 179.848 132.535 179.778 133.029 179.778C133.536 179.778 134.023 179.841 134.492 179.968C134.973 180.095 135.417 180.278 135.822 180.519C136.24 180.747 136.595 181.026 136.886 181.355L135.594 182.78C135.353 182.552 135.087 182.349 134.796 182.172C134.517 181.995 134.232 181.855 133.941 181.754C133.65 181.64 133.377 181.583 133.124 181.583C132.883 181.583 132.668 181.608 132.478 181.659C132.288 181.697 132.13 181.76 132.003 181.849C131.876 181.938 131.775 182.052 131.699 182.191C131.636 182.318 131.604 182.47 131.604 182.647C131.617 182.799 131.655 182.945 131.718 183.084C131.794 183.211 131.895 183.318 132.022 183.407C132.161 183.496 132.37 183.597 132.649 183.711C132.928 183.825 133.289 183.933 133.732 184.034C134.353 184.199 134.872 184.382 135.29 184.585C135.708 184.788 136.037 185.022 136.278 185.288C136.519 185.516 136.69 185.782 136.791 186.086C136.892 186.39 136.943 186.726 136.943 187.093C136.943 187.688 136.772 188.22 136.43 188.689C136.101 189.158 135.645 189.525 135.062 189.791C134.492 190.057 133.846 190.19 133.124 190.19ZM139.268 190V179.987H141.605V190H139.268ZM140.408 177.859C139.939 177.859 139.572 177.745 139.306 177.517C139.052 177.276 138.926 176.941 138.926 176.51C138.926 176.105 139.059 175.775 139.325 175.522C139.591 175.269 139.952 175.142 140.408 175.142C140.889 175.142 141.256 175.262 141.51 175.503C141.776 175.731 141.909 176.067 141.909 176.51C141.909 176.903 141.776 177.226 141.51 177.479C141.244 177.732 140.876 177.859 140.408 177.859ZM149.147 190.19C148.147 190.19 147.254 189.968 146.468 189.525C145.683 189.069 145.062 188.448 144.606 187.663C144.15 186.878 143.922 185.985 143.922 184.984C143.922 183.983 144.15 183.09 144.606 182.305C145.062 181.52 145.683 180.905 146.468 180.462C147.254 180.006 148.147 179.778 149.147 179.778C150.135 179.778 151.022 180.006 151.807 180.462C152.593 180.905 153.207 181.52 153.65 182.305C154.106 183.09 154.334 183.983 154.334 184.984C154.334 185.985 154.106 186.878 153.65 187.663C153.207 188.448 152.593 189.069 151.807 189.525C151.022 189.968 150.135 190.19 149.147 190.19ZM149.147 188.119C149.692 188.119 150.173 187.98 150.591 187.701C151.022 187.422 151.358 187.049 151.598 186.58C151.852 186.111 151.972 185.579 151.959 184.984C151.972 184.376 151.852 183.838 151.598 183.369C151.358 182.9 151.022 182.533 150.591 182.267C150.173 181.988 149.692 181.849 149.147 181.849C148.603 181.849 148.109 181.988 147.665 182.267C147.235 182.533 146.899 182.907 146.658 183.388C146.418 183.857 146.297 184.389 146.297 184.984C146.297 185.579 146.418 186.111 146.658 186.58C146.899 187.049 147.235 187.422 147.665 187.701C148.109 187.98 148.603 188.119 149.147 188.119ZM156.425 190V179.987H158.705L158.743 182.039L158.306 182.267C158.432 181.811 158.679 181.399 159.047 181.032C159.414 180.652 159.851 180.348 160.358 180.12C160.864 179.892 161.384 179.778 161.916 179.778C162.676 179.778 163.309 179.93 163.816 180.234C164.335 180.538 164.721 180.994 164.975 181.602C165.241 182.21 165.374 182.97 165.374 183.882V190H163.037V184.053C163.037 183.546 162.967 183.128 162.828 182.799C162.688 182.457 162.473 182.21 162.182 182.058C161.89 181.893 161.536 181.817 161.118 181.83C160.776 181.83 160.459 181.887 160.168 182.001C159.889 182.102 159.642 182.254 159.427 182.457C159.224 182.647 159.059 182.869 158.933 183.122C158.819 183.375 158.762 183.654 158.762 183.958V190H157.603C157.375 190 157.159 190 156.957 190C156.767 190 156.589 190 156.425 190ZM171.347 190.19C170.46 190.19 169.662 190.044 168.953 189.753C168.256 189.449 167.686 189.018 167.243 188.461L168.763 187.15C169.143 187.581 169.567 187.891 170.036 188.081C170.504 188.271 170.998 188.366 171.518 188.366C171.733 188.366 171.923 188.341 172.088 188.29C172.265 188.239 172.417 188.163 172.544 188.062C172.67 187.961 172.765 187.847 172.829 187.72C172.905 187.581 172.943 187.429 172.943 187.264C172.943 186.96 172.829 186.719 172.601 186.542C172.474 186.453 172.271 186.358 171.993 186.257C171.727 186.156 171.378 186.054 170.948 185.953C170.264 185.776 169.694 185.573 169.238 185.345C168.782 185.104 168.427 184.838 168.174 184.547C167.958 184.306 167.794 184.034 167.68 183.73C167.578 183.426 167.528 183.097 167.528 182.742C167.528 182.299 167.623 181.9 167.813 181.545C168.015 181.178 168.288 180.861 168.63 180.595C168.972 180.329 169.371 180.126 169.827 179.987C170.283 179.848 170.758 179.778 171.252 179.778C171.758 179.778 172.246 179.841 172.715 179.968C173.196 180.095 173.639 180.278 174.045 180.519C174.463 180.747 174.817 181.026 175.109 181.355L173.817 182.78C173.576 182.552 173.31 182.349 173.019 182.172C172.74 181.995 172.455 181.855 172.164 181.754C171.872 181.64 171.6 181.583 171.347 181.583C171.106 181.583 170.891 181.608 170.701 181.659C170.511 181.697 170.352 181.76 170.226 181.849C170.099 181.938 169.998 182.052 169.922 182.191C169.858 182.318 169.827 182.47 169.827 182.647C169.839 182.799 169.877 182.945 169.941 183.084C170.017 183.211 170.118 183.318 170.245 183.407C170.384 183.496 170.593 183.597 170.872 183.711C171.15 183.825 171.511 183.933 171.955 184.034C172.575 184.199 173.095 184.382 173.513 184.585C173.931 184.788 174.26 185.022 174.501 185.288C174.741 185.516 174.912 185.782 175.014 186.086C175.115 186.39 175.166 186.726 175.166 187.093C175.166 187.688 174.995 188.22 174.653 188.689C174.323 189.158 173.867 189.525 173.285 189.791C172.715 190.057 172.069 190.19 171.347 190.19Z" fill="#4B4B4B"/>
<defs>
<linearGradient id="paint0_linear_749_1200" x1="89.9821" y1="110" x2="196.438" y2="117.343" gradientUnits="userSpaceOnUse">
<stop stop-color="#4C9536"/>
<stop offset="1" stop-color="#10B1D1"/>
</linearGradient>
</defs>
</svg>
