<svg width="79" height="79" viewBox="0 0 79 79" fill="none" xmlns="http://www.w3.org/2000/svg">
<circle cx="39.5" cy="39.5" r="39.5" fill="white"/>
<path d="M52.1654 25.0327L22.4326 34.9464C22.3109 34.9868 22.2044 35.0634 22.1272 35.1659C22.05 35.2684 22.0058 35.3919 22.0005 35.5201C21.9952 35.6483 22.0291 35.7751 22.0976 35.8836C22.166 35.9921 22.2659 36.0772 22.3839 36.1275L33.3104 40.8107C33.3677 40.8355 33.4304 40.8451 33.4924 40.8384C33.5544 40.8318 33.6137 40.8092 33.6644 40.7728L44.376 33.1186C44.7083 32.8838 45.1165 33.292 44.8817 33.6243L37.2277 44.3362C37.192 44.3869 37.1699 44.4459 37.1635 44.5076C37.1572 44.5693 37.1669 44.6316 37.1916 44.6884L41.8728 55.6153C41.923 55.7334 42.008 55.8333 42.1164 55.902C42.2247 55.9706 42.3514 56.0046 42.4796 55.9995C42.6078 55.9944 42.7314 55.9504 42.834 55.8734C42.9366 55.7964 43.0133 55.69 43.054 55.5684L52.9673 25.8328C53.0046 25.7213 53.0101 25.6017 52.9832 25.4873C52.9563 25.3729 52.898 25.2683 52.8149 25.1851C52.7318 25.102 52.6271 25.0437 52.5127 25.0168C52.3983 24.9899 52.2769 24.9954 52.1654 25.0327Z" fill="black"/>
</svg>
