<svg width="992" height="824" viewBox="0 0 992 824" fill="none" xmlns="http://www.w3.org/2000/svg">
<path d="M5.40757 644.238C33.1625 849.468 340.153 835.824 500.472 801.651C507.819 800.085 514.918 797.857 521.909 795.106L897.418 647.38C922.608 637.47 945.356 621.34 958.892 597.899C999.857 526.951 1021.44 424.279 878.907 403.238C824.836 395.256 785.612 387.06 757.569 379.27C709.655 365.96 686.767 312.593 673.173 264.759L633.61 125.545C630.155 113.389 625.277 101.567 618.374 90.9808C508.419 -77.6468 378.014 27.9731 316.186 115.824C309.09 125.907 304.193 137.271 299.418 148.638C269.344 220.218 208.494 263.449 179.908 276.738C109.908 311.738 -22.9924 434.238 5.40757 644.238Z" stroke="#7DB65A" stroke-width="3" stroke-dasharray="12 12"/>
</svg>
