<svg width="85" height="85" viewBox="0 0 85 85" fill="none" xmlns="http://www.w3.org/2000/svg">
<circle cx="42.5" cy="42.5" r="42.5" fill="#CBEBE9"/>
<path d="M23.0162 33.7112L32.4138 36.4714L42.743 28.8392L27.9193 29.2716C27.7739 29.2781 27.6328 29.324 27.5107 29.4046L22.8201 32.1482C22.6742 32.2304 22.5559 32.3553 22.4805 32.5067C22.4051 32.6581 22.3761 32.829 22.3972 32.9973C22.4183 33.1657 22.4886 33.3237 22.599 33.451C22.7093 33.5782 22.8547 33.6689 23.0162 33.7112Z" fill="#40B5AF"/>
<path d="M69.9134 24.9396L59.3041 22.6254C58.4119 22.4297 57.4884 22.4302 56.5964 22.6269C55.7043 22.8236 54.8646 23.2119 54.1342 23.7655L22.0873 47.299L14.3914 46.9586C13.9506 46.9435 13.5162 47.0686 13.1496 47.3164C12.7829 47.5642 12.5026 47.9221 12.3481 48.3396C12.1937 48.757 12.1729 49.2129 12.2887 49.643C12.4045 50.073 12.6511 50.4554 12.9937 50.7362L20.4875 56.743C20.6109 56.8435 20.7577 56.9104 20.914 56.9372C21.0703 56.964 21.2308 56.9499 21.3801 56.8961C23.5188 56.0623 31.4842 51.7912 40.8978 46.5673L42.7839 66.1529C42.7999 66.3226 42.8614 66.4846 42.9619 66.6214C43.0623 66.7583 43.1978 66.8649 43.3538 66.9297C43.5097 66.9945 43.6802 67.015 43.8469 66.9891C44.0136 66.9632 44.1701 66.8917 44.2995 66.7825L48.5096 63.2432C48.74 63.0478 48.8951 62.7767 48.9474 62.4774L52.9385 39.8629C59.6746 36.0853 66.1075 32.4268 70.6375 29.8403C71.1077 29.5818 71.4878 29.1836 71.7264 28.6995C71.965 28.2154 72.0506 27.6689 71.9716 27.1341C71.8925 26.5992 71.6527 26.1018 71.2845 25.7093C70.9164 25.3168 70.4377 25.0481 69.9134 24.9396Z" fill="#40B5AF"/>
</svg>
