<svg width="102" height="102" viewBox="0 0 102 102" fill="none" xmlns="http://www.w3.org/2000/svg">
<circle cx="51" cy="51" r="51" fill="#CBEBE9"/>
<path d="M19 49.4778C19 32.5388 33.2116 19 50.5 19C67.7884 19 82 32.5388 82 49.4778V61.7382C82 62.003 81.9868 62.2645 81.9604 62.5226C81.9868 62.6959 82 62.8736 82 63.0556C82 65.9011 81.644 69.0023 81.2967 71.3712C80.7517 75.0791 78.5262 78.7567 74.4517 80.347C70.0666 82.0601 62.4524 84 50.5 84C49.5286 84 48.5969 83.6195 47.91 82.9423C47.2231 82.2651 46.8372 81.3466 46.8372 80.3889C46.8372 79.4312 47.2231 78.5127 47.91 77.8354C48.5969 77.1582 49.5286 76.7778 50.5 76.7778C61.6393 76.7778 68.3231 74.9722 71.7544 73.6332C72.8709 73.197 73.791 72.0776 74.0459 70.337C74.0781 70.1165 74.1099 69.8921 74.1411 69.6639C72.0812 70.116 69.7018 70.5522 67.3357 70.7963C64.2267 71.1184 61.1953 69.271 60.6283 65.943C60.2972 64.0074 60.0233 61.2153 60.0233 57.2763C60.0233 53.3402 60.2972 50.5496 60.6283 48.6126C61.1953 45.2846 64.2267 43.4371 67.3357 43.7592C68.5839 43.8878 69.8366 44.0698 71.0424 44.2792C68.6572 35.6068 60.4379 29.1111 50.5 29.1111C40.5621 29.1111 32.3443 35.6068 29.9576 44.2792C31.1867 44.0639 32.4231 43.8904 33.6643 43.7592C36.7733 43.4371 39.8046 45.2846 40.3731 48.6126C40.7028 50.5481 40.9767 53.3402 40.9767 57.2778C40.9767 61.2153 40.7028 64.006 40.3731 65.943C39.8046 69.271 36.7733 71.1184 33.6643 70.7963C30.444 70.4641 27.2032 69.778 24.7711 69.1786C21.2548 68.3104 19 65.1673 19 61.7397V49.4778Z" fill="#30A7A1"/>
</svg>
