<svg width="70" height="70" viewBox="0 0 70 70" fill="none" xmlns="http://www.w3.org/2000/svg">
<circle cx="35" cy="35" r="35" fill="#CBEBE9"/>
<path d="M42.3331 34C40.3199 34 38.3733 33.1133 36.8498 31.5041C35.3683 29.9345 34.4635 27.8414 34.3039 25.612C34.1336 23.234 34.8689 21.0472 36.3739 19.4534C37.8789 17.8597 39.9831 17 42.3331 17C44.6664 17 46.7765 17.8751 48.2766 19.465C49.7913 21.0703 50.5286 23.2533 50.3583 25.6111C50.1947 27.8433 49.291 29.9354 47.8124 31.5031C46.2928 33.1133 44.3472 34 42.3331 34ZM55.2413 51H29.4257C29.0107 51.0022 28.6007 50.9104 28.2272 50.7317C27.8538 50.553 27.5268 50.2922 27.2716 49.9693C27.0009 49.6193 26.8139 49.2134 26.7247 48.782C26.6355 48.3506 26.6464 47.9049 26.7566 47.4783C27.581 44.2125 29.6235 41.5041 32.6629 39.6467C35.3604 37.9988 38.7944 37.0909 42.3331 37.0909C45.9413 37.0909 49.2851 37.9602 51.9984 39.6071C55.0445 41.4549 57.09 44.1787 57.9105 47.4841C58.0194 47.911 58.029 48.3567 57.9388 48.7879C57.8486 49.2191 57.6609 49.6246 57.3896 49.9742C57.1347 50.2956 56.8085 50.5551 56.4361 50.7329C56.0637 50.9107 55.655 51.0021 55.2413 51ZM23.8269 34.3863C20.3812 34.3863 17.3517 31.2259 17.0707 27.342C16.9316 25.3522 17.5603 23.5122 18.8332 22.1628C20.0924 20.8269 21.8686 20.0909 23.8269 20.0909C25.7852 20.0909 27.5477 20.8308 28.8138 22.1744C30.0965 23.5344 30.7231 25.3706 30.5763 27.3439C30.2952 31.2269 27.2667 34.3863 23.8269 34.3863ZM30.2561 37.4241C28.5337 36.5934 26.2983 36.1781 23.8279 36.1781C20.9433 36.1781 18.1419 36.9199 15.9388 38.2664C13.4409 39.7954 11.7607 42.0218 11.0821 44.71C10.9828 45.0966 10.9734 45.5004 11.0547 45.8911C11.1359 46.2819 11.3056 46.6494 11.5512 46.9663C11.7841 47.2614 12.0826 47.4998 12.4237 47.6632C12.7647 47.8267 13.1392 47.9108 13.5183 47.9091H24.387C24.5704 47.909 24.748 47.8455 24.8889 47.7295C25.0297 47.6136 25.1248 47.4525 25.1576 47.2745C25.1684 47.2136 25.1821 47.1528 25.1977 47.0929C26.0281 43.803 27.9737 41.0231 30.8485 38.9966C30.9542 38.9214 31.0393 38.8214 31.0959 38.7056C31.1526 38.5898 31.179 38.4619 31.1729 38.3335C31.1668 38.205 31.1282 38.0801 31.0608 37.9701C30.9934 37.86 30.8992 37.7683 30.7868 37.7033C30.6331 37.6144 30.4568 37.5207 30.2561 37.4241Z" fill="#40B5AF"/>
</svg>
