<svg width="102" height="102" viewBox="0 0 102 102" fill="none" xmlns="http://www.w3.org/2000/svg">
<circle cx="51" cy="51" r="51" fill="#CBEBE9"/>
<path d="M68.3146 22C69.8496 22 71.3218 22.6098 72.4072 23.6952C73.4926 24.7806 74.1024 26.2528 74.1024 27.7878V74.0901C74.1024 75.6252 73.4926 77.0973 72.4072 78.1827C71.3218 79.2681 69.8496 79.8779 68.3146 79.8779H33.5878C32.0528 79.8779 30.5807 79.2681 29.4953 78.1827C28.4098 77.0973 27.8 75.6252 27.8 74.0901V27.7878C27.8 26.2528 28.4098 24.7806 29.4953 23.6952C30.5807 22.6098 32.0528 22 33.5878 22H68.3146ZM50.9512 53.8329H42.2695C41.502 53.8329 40.7659 54.1378 40.2232 54.6805C39.6805 55.2232 39.3756 55.9593 39.3756 56.7268C39.3756 57.4943 39.6805 58.2303 40.2232 58.7731C40.7659 59.3158 41.502 59.6207 42.2695 59.6207H50.9512C51.7187 59.6207 52.4548 59.3158 52.9975 58.7731C53.5402 58.2303 53.8451 57.4943 53.8451 56.7268C53.8451 55.9593 53.5402 55.2232 52.9975 54.6805C52.4548 54.1378 51.7187 53.8329 50.9512 53.8329ZM59.6329 39.3634H42.2695C41.5319 39.3642 40.8225 39.6466 40.2861 40.153C39.7498 40.6593 39.427 41.3514 39.3838 42.0877C39.3406 42.824 39.5802 43.5491 40.0536 44.1147C40.527 44.6803 41.1985 45.0438 41.9309 45.1309L42.2695 45.1512H59.6329C60.3705 45.1504 61.08 44.8679 61.6163 44.3616C62.1526 43.8552 62.4754 43.1632 62.5186 42.4269C62.5619 41.6905 62.3223 40.9655 61.8489 40.3999C61.3755 39.8343 60.7039 39.4708 59.9715 39.3836L59.6329 39.3634Z" fill="#349F99"/>
</svg>
